<?xml version="1.0" standalone="no"?>
<!DOCTYPE svg PUBLIC "-//W3C//DTD SVG 1.1//EN" "http://www.w3.org/Graphics/SVG/1.1/DTD/svg11.dtd" >
<svg xmlns="http://www.w3.org/2000/svg" xmlns:xlink="http://www.w3.org/1999/xlink" version="1.1">
<metadata>
Created by FontForge 20200314 at Mon May 12 19:18:03 2014
 By Unknown
Copyright 1990-2004 Bitstream Inc.  All rights reserved.
</metadata>
<defs>
<font id="FatAlbertBTW01-Regular" horiz-adv-x="1106" >
  <font-face 
    font-family="FatAlbertBTW01-Regular"
    font-weight="400"
    font-stretch="normal"
    units-per-em="2048"
    panose-1="2 11 8 4 5 1 1 4 8 2"
    ascent="1479"
    descent="-569"
    x-height="942"
    cap-height="1339"
    bbox="-63 -483 2048 1786"
    underline-thickness="233"
    underline-position="-563"
    unicode-range="U+000D-2122"
  />
<missing-glyph horiz-adv-x="0" 
 />
    <glyph glyph-name=".notdef" horiz-adv-x="0" 
 />
    <glyph glyph-name=".null" horiz-adv-x="0" 
 />
    <glyph glyph-name="uni000D" unicode="&#xd;" horiz-adv-x="0" 
 />
    <glyph glyph-name="space" unicode=" " horiz-adv-x="580" 
 />
    <glyph glyph-name="exclam" unicode="!" horiz-adv-x="492" 
d="M434 1339l-61 -929h-254l-62 929h377zM428 0h-365v299h365v-299z" />
    <glyph glyph-name="quotedbl" unicode="&#x22;" horiz-adv-x="614" 
d="M532 813h-159v526h159v-526zM242 813h-160v526h160v-526z" />
    <glyph glyph-name="numbersign" unicode="#" horiz-adv-x="881" 
d="M829 659h-167v-243h-138v243h-166v-243h-139v243h-168v136h168v170h-168v133h168v241h139v-241h166v241h138v-241h167v-133h-167v-170h167v-136zM524 795v170h-166v-170h166z" />
    <glyph glyph-name="dollar" unicode="$" horiz-adv-x="881" 
d="M827 338q0 -58 -42 -99.5t-101 -41.5h-137v-197h-219v197h-260v241h366q27 0 45.5 18t18.5 44t-19 44.5t-45 18.5h-239q-58 0 -100 42.5t-42 101.5v315q0 59 42 101t100 42h133v174h219v-174h252v-237h-359q-24 0 -41.5 -17.5t-17.5 -42.5t17.5 -43t41.5 -18h244
q59 0 101 -41.5t42 -99.5v-328z" />
    <glyph glyph-name="percent" unicode="%" horiz-adv-x="1380" 
d="M612 805q0 -37 -26.5 -62.5t-63.5 -25.5h-381q-37 0 -62.5 25.5t-25.5 62.5v446q0 37 25.5 62.5t62.5 25.5h381q37 0 63.5 -25.5t26.5 -62.5v-446zM1102 1339l-684 -1339h-139l686 1339h137zM1327 88q0 -36 -26.5 -62t-63.5 -26h-381q-37 0 -62.5 25.5t-25.5 62.5v447
q0 36 25.5 62t62.5 26h381q37 0 63.5 -26t26.5 -62v-447zM414 1028q0 69 -21.5 108.5t-58.5 39.5q-38 0 -60 -40t-22 -108q0 -69 21.5 -108t60.5 -39q38 0 59 38.5t21 108.5zM1128 311q0 69 -21 108.5t-58 39.5q-38 0 -60 -39.5t-22 -108.5t21.5 -108t60.5 -39
q38 0 58.5 38.5t20.5 108.5z" />
    <glyph glyph-name="ampersand" unicode="&#x26;" horiz-adv-x="1319" 
d="M1280 444h-129q-34 0 -55 -25t-21 -65v-202q0 -63 -44 -107.5t-107 -44.5h-713q-63 0 -107.5 44.5t-44.5 107.5v407q0 67 45.5 108.5t120.5 41.5v14q-66 0 -100.5 36t-34.5 105v324q0 63 43.5 107t106.5 44h667q63 0 107.5 -44t44.5 -107v-285h-348v12q0 59 -35 95.5
t-92 36.5q-58 0 -94.5 -32.5t-36.5 -82.5q0 -52 29 -78.5t85 -26.5h15v-252h-17q-56 0 -89.5 -33.5t-33.5 -90.5q0 -54 37 -86.5t95 -32.5q62 1 100.5 43t38.5 108v242h567v-281z" />
    <glyph glyph-name="quotesingle" unicode="'" horiz-adv-x="324" 
d="M242 813h-160v526h160v-526z" />
    <glyph glyph-name="parenleft" unicode="(" horiz-adv-x="537" 
d="M496 -184h-58q-183 0 -281 221t-98 604q0 379 98 602t281 223h58v-190q-108 0 -165 -168.5t-57 -466.5q0 -263 58.5 -449t163.5 -186v-190z" />
    <glyph glyph-name="parenright" unicode=")" horiz-adv-x="537" 
d="M477 641q0 -383 -97.5 -604t-281.5 -221h-57v190q104 0 162.5 186t58.5 449q0 298 -57 466.5t-164 168.5v190h57q184 0 281.5 -223t97.5 -602z" />
    <glyph glyph-name="asterisk" unicode="*" horiz-adv-x="754" 
d="M690 887l-53 -90l-174 96q-6 3 -9 3.5t-5 0.5q-9 0 -15 -7t-6 -20v-194h-104v198q0 12 -6.5 19.5t-16.5 7.5q-3 0 -6.5 -1t-7.5 -3l-172 -100l-52 90l172 100q5 3 9 9.5t4 11.5q0 7 -3 12t-11 10l-171 98l52 91l178 -101q1 -1 2.5 -1.5t5.5 -0.5q8 0 15.5 8t7.5 17v198
h104v-196q0 -12 7 -19.5t18 -7.5q2 0 6.5 1.5l7.5 2.5l170 99l53 -91l-170 -98q-9 -7 -12.5 -12t-3.5 -10q0 -7 4.5 -13t11.5 -10z" />
    <glyph glyph-name="plus" unicode="+" horiz-adv-x="1188" 
d="M1116 563h-405v-405h-234v405h-405v234h405v405h234v-405h405v-234z" />
    <glyph glyph-name="comma" unicode="," horiz-adv-x="430" 
d="M369 33q0 -40 -7.5 -71.5t-25.5 -70.5q-12 -24 -70 -141h-157q51 121 73 170q6 13 8 21.5t3 15.5q0 20 -14 31.5t-40 11.5h-78v279h308v-246z" />
    <glyph glyph-name="hyphen" unicode="-" horiz-adv-x="557" 
d="M496 449h-435v233h435v-233z" />
    <glyph glyph-name="period" unicode="." horiz-adv-x="430" 
d="M369 0h-308v279h308v-279z" />
    <glyph glyph-name="slash" unicode="/" horiz-adv-x="778" 
d="M768 1399l-588 -1512h-170l588 1512h170z" />
    <glyph glyph-name="zero" unicode="0" horiz-adv-x="1085" 
d="M1026 152q0 -63 -44.5 -107.5t-107.5 -44.5h-663q-63 0 -107.5 44.5t-44.5 107.5v1038q0 63 44.5 106t107.5 43h663q64 0 108 -43t44 -106v-1038zM686 680q0 167 -37.5 259.5t-105.5 92.5q-69 0 -106.5 -92.5t-37.5 -259.5q0 -169 38 -263.5t106 -94.5t105.5 94.5
t37.5 263.5z" />
    <glyph glyph-name="one" unicode="1" horiz-adv-x="631" 
d="M563 0h-358v936q0 34 -27.5 58t-64.5 24h-72v321h522v-1339z" />
    <glyph glyph-name="two" unicode="2" horiz-adv-x="1085" 
d="M1032 901q0 -76 -20 -121t-72 -88q-2 -2 -301 -250q-19 -15 -28 -31t-9 -34q0 -25 18.5 -39t47.5 -14h364v-324h-981v283q0 69 19.5 109.5t72.5 84.5q426 344 426 346q45 37 61.5 70t16.5 78t-31 75.5t-77 30.5q-57 0 -84 -38t-27 -140v-16h-373v305q0 62 44 106.5
t106 44.5h676q63 0 107 -44t44 -107v-287z" />
    <glyph glyph-name="three" unicode="3" horiz-adv-x="1085" 
d="M1026 150q0 -61 -41.5 -105.5t-99.5 -44.5h-682q-63 0 -107.5 44.5t-44.5 107.5v319h359q0 -85 29 -122.5t91 -37.5q57 0 88 37.5t31 102.5q0 58 -39 85t-147 27v254q117 0 151.5 30t34.5 99q0 51 -31 81t-81 30q-61 0 -89 -36t-28 -122h-367v289q0 63 44.5 107t107.5 44
h674q62 0 104.5 -43.5t42.5 -105.5v-369q0 -53 -36.5 -89t-90.5 -36v-10q55 0 91 -34t36 -87v-415z" />
    <glyph glyph-name="four" unicode="4" horiz-adv-x="1159" 
d="M1122 305h-35q-37 0 -62.5 -25t-25.5 -63v-217h-352v203q0 52 -25 77t-77 25h-363q-53 0 -99 43t-46 98v244q0 79 40 193l3 8l115 328q21 60 64 90t108 30h632v-612q0 -47 21 -70.5t61 -23.5h41v-328zM672 821q0 84 -34 139.5t-87 55.5q-54 0 -87.5 -55.5t-33.5 -139.5
q0 -83 33.5 -136.5t87.5 -53.5t87.5 53.5t33.5 136.5z" />
    <glyph glyph-name="five" unicode="5" horiz-adv-x="1073" 
d="M1016 152q0 -65 -48 -108.5t-116 -43.5h-641q-63 0 -107.5 44.5t-44.5 107.5v301h351v-21q0 -48 36 -81.5t89 -33.5q55 0 85.5 34.5t30.5 94.5q0 64 -31.5 95.5t-95.5 31.5h-465v766h945v-323h-453q-38 0 -65 -25.5t-27 -60.5t26.5 -59.5t65.5 -24.5h336q56 0 92.5 -37
t36.5 -90v-567z" />
    <glyph glyph-name="six" unicode="6" horiz-adv-x="1077" 
d="M1022 901h-358v17q0 48 -35.5 83t-83.5 35q-59 0 -90 -34t-31 -99q0 -47 35 -78.5t92 -31.5h319q63 0 106.5 -44.5t43.5 -107.5v-489q0 -64 -43.5 -108t-106.5 -44h-663q-63 0 -106.5 44t-43.5 108v1038q0 59 44 105t100 46h669q63 0 107.5 -44t44.5 -107v-289zM653 395
q0 53 -33 87t-83 34t-83.5 -34t-33.5 -87t33.5 -87t83.5 -34t83 34t33 87z" />
    <glyph glyph-name="seven" unicode="7" horiz-adv-x="995" 
d="M958 1032q0 -47 -9 -95.5t-29 -113.5l-271 -823h-401l311 852q6 16 9 31.5t3 31.5q0 55 -27 90t-73 35q-52 0 -80.5 -39t-28.5 -108h-325v446h921v-307z" />
    <glyph glyph-name="eight" unicode="8" horiz-adv-x="1085" 
d="M1026 152q0 -63 -44.5 -107.5t-107.5 -44.5h-665q-63 0 -107.5 44.5t-44.5 107.5v428q0 52 36.5 87t92.5 35v15q-55 0 -92 36.5t-37 90.5v344q0 63 44.5 107t107.5 44h665q63 0 107.5 -44t44.5 -107v-344q0 -54 -36 -90.5t-91 -36.5v-15q56 0 91.5 -35t35.5 -87v-428z
M666 948q0 67 -34.5 110.5t-90.5 43.5q-57 0 -92 -44t-35 -110t34.5 -108.5t92.5 -42.5q56 0 90.5 42.5t34.5 108.5zM666 418q0 67 -34.5 110t-90.5 43q-57 0 -92 -43.5t-35 -109.5t34.5 -109t92.5 -43q56 0 90.5 42.5t34.5 109.5z" />
    <glyph glyph-name="nine" unicode="9" horiz-adv-x="1077" 
d="M1020 152q0 -60 -44 -106t-99 -46h-670q-63 0 -107.5 44.5t-44.5 107.5v288h359v-16q0 -48 35 -83.5t83 -35.5q59 0 90 34.5t31 98.5q0 48 -35 79.5t-92 31.5h-319q-63 0 -106.5 44t-43.5 107v490q0 63 43.5 107t106.5 44h663q63 0 106.5 -44t43.5 -107v-1038zM657 946
q0 53 -33 87t-83 34t-83.5 -34t-33.5 -87t33.5 -87t83.5 -34t83 34t33 87z" />
    <glyph glyph-name="colon" unicode=":" horiz-adv-x="430" 
d="M369 573h-308v281h308v-281zM369 0h-308v279h308v-279z" />
    <glyph glyph-name="semicolon" unicode=";" horiz-adv-x="430" 
d="M385 573h-307v279h307v-279zM385 33q0 -40 -7 -71.5t-26 -70.5q-12 -24 -69 -141h-158q51 121 74 171q5 12 7.5 21t2.5 15q0 20 -14 31.5t-39 11.5h-78v279h307v-246z" />
    <glyph glyph-name="less" unicode="&#x3c;" horiz-adv-x="1188" 
d="M1036 266q0 -12 -3 -24t-9 -23q-13 -23 -35.5 -36t-48.5 -13q-13 0 -26 3t-23 9l-739 416v164l739 418q12 6 24 9t23 3q41 0 69.5 -28t28.5 -68q0 -27 -13 -50t-36 -36l-586 -330l586 -330q23 -14 36 -36t13 -48z" />
    <glyph glyph-name="equal" unicode="=" horiz-adv-x="1188" 
d="M1116 797h-1044v233h1044v-233zM1116 330h-1044v233h1044v-233z" />
    <glyph glyph-name="greater" unicode="&#x3e;" horiz-adv-x="1188" 
d="M1036 600l-739 -418q-12 -6 -24 -9t-23 -3q-41 0 -69.5 28t-28.5 68q0 27 13 50t36 36l585 330l-585 330q-24 14 -36.5 36t-12.5 48q0 12 3 24t9 23q13 23 35.5 36t48.5 13q13 0 26 -3.5t23 -8.5l739 -416v-164z" />
    <glyph glyph-name="question" unicode="?" horiz-adv-x="1085" 
d="M1026 702q0 -63 -41 -104t-104 -41h-52q-29 0 -55 -24.5t-26 -55.5v-67h-365v331h127q63 0 106 41t43 99q0 57 -37.5 96t-95.5 39t-97.5 -35t-39.5 -88v-10h-338v307q0 63 44 106t108 43h674q63 0 106 -43t43 -106v-488zM748 0h-365v299h365v-299z" />
    <glyph glyph-name="at" unicode="@" horiz-adv-x="1393" 
d="M1331 403q0 -38 -28 -67t-66 -29h-756q-34 0 -58 24t-24 58v281q0 34 24.5 59t57.5 25h256q27 0 41.5 16.5t14.5 48.5q0 28 -14.5 43t-41.5 15h-317v155h489q34 0 59 -24t25 -58v-469h103q23 0 42 19.5t19 44.5v555q0 23 -19.5 44t-43.5 21h-793q-26 0 -45.5 -21.5
t-19.5 -45.5v-858q0 -24 20 -45t47 -21h817v-174h-962q-39 0 -68 29t-29 67v1147q0 39 29 67.5t68 28.5h1077q38 0 67 -28.5t29 -67.5v-840zM793 530q0 35 -23.5 57.5t-60.5 22.5q-38 0 -61 -22.5t-23 -57.5t23 -57t61 -22q37 0 60.5 22t23.5 57z" />
    <glyph glyph-name="A" unicode="A" 
d="M1047 0h-367v166q0 56 -38 95.5t-91 39.5q-52 0 -87.5 -39t-35.5 -96v-166h-369v1188q0 63 44.5 107t107.5 44h684q63 0 107.5 -44t44.5 -107v-1188zM686 811q0 89 -37 145t-98 56t-97 -55.5t-36 -145.5t36 -144.5t97 -54.5t98 55t37 144z" />
    <glyph glyph-name="B" unicode="B" horiz-adv-x="1110" 
d="M1057 152q0 -63 -44.5 -107.5t-107.5 -44.5h-846v1339h846q63 0 107.5 -44t44.5 -107v-344q0 -54 -36 -90.5t-91 -36.5v-15q55 0 91 -36.5t36 -90.5v-423zM684 938q0 63 -37 105t-96 42t-96 -42t-37 -105t37 -104t96 -41t96 41t37 104zM684 422q0 63 -37 104t-96 41
t-96 -41t-37 -104t37 -104.5t96 -41.5t96 41.5t37 104.5z" />
    <glyph glyph-name="C" unicode="C" horiz-adv-x="1102" 
d="M1042 150q0 -63 -44 -106.5t-107 -43.5h-680q-63 0 -107.5 43.5t-44.5 106.5v1040q0 63 44.5 106t107.5 43h680q63 0 107 -43t44 -106v-395h-352q-8 105 -42.5 161t-92.5 56q-68 0 -103.5 -87.5t-35.5 -254.5q0 -168 35.5 -255t103.5 -87q58 0 93.5 59t41.5 168h352v-405
z" />
    <glyph glyph-name="D" unicode="D" horiz-adv-x="1118" 
d="M1059 150q0 -63 -44 -106.5t-108 -43.5h-848v1339h848q63 0 107.5 -44t44.5 -107v-1038zM694 678q0 169 -33.5 251.5t-101.5 82.5t-101.5 -82.5t-33.5 -251.5q0 -170 34 -255t101 -85q68 0 101.5 85t33.5 255z" />
    <glyph glyph-name="E" unicode="E" horiz-adv-x="991" 
d="M942 0h-883v1339h883v-335h-412q-40 0 -67 -25t-27 -61q0 -37 27 -62t67 -25h412v-319h-412q-40 0 -67 -24.5t-27 -61.5t27.5 -63.5t66.5 -26.5h412v-336z" />
    <glyph glyph-name="F" unicode="F" horiz-adv-x="967" 
d="M920 512h-373q-45 0 -78 -32t-33 -77v-403h-377v1339h861v-335h-392q-40 0 -67 -25t-27 -61q0 -37 27 -62t67 -25h392v-319z" />
    <glyph glyph-name="G" unicode="G" horiz-adv-x="1102" 
d="M1042 152q0 -64 -43 -108t-106 -44h-682q-63 0 -107.5 44.5t-44.5 107.5v1038q0 63 44.5 106t107.5 43h682q63 0 106 -43t43 -106v-354h-352q-9 82 -43.5 131t-87.5 49q-69 0 -106 -88.5t-37 -253.5q0 -174 35.5 -262t105.5 -88q43 0 77.5 41.5t45.5 105.5h-125v236h487
v-555z" />
    <glyph glyph-name="H" unicode="H" horiz-adv-x="1118" 
d="M1059 0h-373v371q0 57 -37 97t-90 40t-90 -40t-37 -97v-371h-373v1339h373v-350q0 -57 37 -96t90 -39t90 39t37 96v350h373v-1339z" />
    <glyph glyph-name="I" unicode="I" horiz-adv-x="492" 
d="M430 0h-369v1339h369v-1339z" />
    <glyph glyph-name="J" unicode="J" horiz-adv-x="1024" 
d="M963 152q0 -64 -43.5 -108t-106.5 -44h-625q-63 0 -107 44.5t-44 107.5v395h369v-133q0 -39 27.5 -67t66.5 -28q37 0 65.5 25.5t28.5 58.5v936h369v-1187z" />
    <glyph glyph-name="K" unicode="K" 
d="M1047 0h-369v373q0 57 -35.5 96t-87.5 39q-53 0 -90 -39.5t-37 -95.5v-373h-369v1339h369v-348q0 -56 37 -95.5t90 -39.5q52 0 87.5 39t35.5 96v348h369v-426q0 -69 -29.5 -114.5t-95.5 -85.5l-31 -19v-8l31 -18q67 -41 96 -86.5t29 -116.5v-465z" />
    <glyph glyph-name="L" unicode="L" horiz-adv-x="897" 
d="M860 0h-801v1339h371v-919q0 -34 28 -59t64 -25h338v-336z" />
    <glyph glyph-name="M" unicode="M" horiz-adv-x="1675" 
d="M1616 0h-365v883q0 57 -31.5 93t-82.5 36q-52 0 -84.5 -36t-32.5 -93v-883h-365v883q0 57 -31.5 93t-82.5 36q-52 0 -84.5 -36t-32.5 -93v-883h-365v1339h1405q61 0 106.5 -41t45.5 -98v-1200z" />
    <glyph glyph-name="N" unicode="N" horiz-adv-x="1110" 
d="M1051 0h-369v877q0 56 -38 95.5t-91 39.5q-52 0 -88.5 -39.5t-36.5 -95.5v-877h-369v1339h840q61 0 106.5 -40.5t45.5 -96.5v-1202z" />
    <glyph glyph-name="O" unicode="O" horiz-adv-x="1126" 
d="M1067 152q0 -64 -43.5 -108t-105.5 -44h-707q-63 0 -107.5 44.5t-44.5 107.5v1036q0 63 44.5 107t107.5 44h707q62 0 105.5 -44t43.5 -107v-1036zM702 678q0 165 -35 249.5t-104 84.5t-104 -84.5t-35 -249.5q0 -167 35.5 -253.5t103.5 -86.5q69 0 104 86.5t35 253.5z" />
    <glyph glyph-name="P" unicode="P" horiz-adv-x="1090" 
d="M1040 547q0 -63 -44 -107.5t-107 -44.5h-359q-47 0 -74.5 -25.5t-27.5 -70.5v-299h-369v1339h830q62 0 106.5 -45t44.5 -108v-639zM682 870q0 66 -37 111t-98 45t-99 -45t-38 -111q0 -65 38 -110t99 -45t98 44.5t37 110.5z" />
    <glyph glyph-name="Q" unicode="Q" horiz-adv-x="1126" 
d="M1067 150q0 -63 -44 -106.5t-108 -43.5h-176q-23 0 -38 -15t-15 -36q0 -22 14 -36.5t37 -14.5h142v-242h-338q-60 0 -90.5 30.5t-30.5 90.5v145q0 36 -17.5 57t-48.5 21h-143q-63 0 -107.5 43.5t-44.5 106.5v1038q0 63 44.5 107t107.5 44h704q63 0 107.5 -44t44.5 -107
v-1038zM702 678q0 165 -35 249.5t-104 84.5t-104 -84.5t-35 -249.5q0 -167 35.5 -253.5t103.5 -86.5q69 0 104 86.5t35 253.5z" />
    <glyph glyph-name="R" unicode="R" 
d="M1047 793q0 -54 -37 -90.5t-92 -36.5v-13q55 0 90.5 -36.5t35.5 -90.5v-526h-364v309q0 57 -36.5 96t-88.5 39t-88.5 -39t-36.5 -96v-309h-371v1339h836q63 0 107.5 -44t44.5 -107v-395zM686 901q0 66 -37 111t-98 45t-99 -45.5t-38 -110.5t38 -110.5t99 -45.5t98 45
t37 111z" />
    <glyph glyph-name="S" unicode="S" horiz-adv-x="1090" 
d="M1036 152q0 -63 -43.5 -107.5t-105.5 -44.5h-682q-63 0 -107.5 44.5t-44.5 107.5v270h383q0 -59 27.5 -91t79.5 -32t82 34t30 91q0 49 -32 78.5t-84 29.5h-334q-62 0 -107 46.5t-45 109.5v500q0 63 44.5 107t107.5 44h682q62 0 105.5 -44.5t43.5 -106.5v-250h-385
q0 53 -28 84t-78 31q-48 0 -78.5 -30t-30.5 -77q0 -54 31 -83t86 -29h334q62 0 105.5 -45t43.5 -107v-530z" />
    <glyph glyph-name="T" unicode="T" horiz-adv-x="987" 
d="M954 1004h-184q-37 0 -64.5 -25t-27.5 -59v-920h-369v920q0 34 -27.5 59t-64.5 25h-184v335h921v-335z" />
    <glyph glyph-name="U" unicode="U" 
d="M1047 152q0 -63 -44.5 -107.5t-107.5 -44.5h-684q-61 0 -106.5 40.5t-45.5 96.5v1202h369v-880q0 -57 36.5 -96t88.5 -39t88.5 39t36.5 96v880h369v-1187z" />
    <glyph glyph-name="V" unicode="V" horiz-adv-x="1094" 
d="M1040 690q0 -67 -8 -119t-26 -106l-162 -465h-598l-158 467q-18 55 -26.5 108.5t-8.5 112.5v651h369v-786q0 -57 36.5 -96t88.5 -39t88.5 39t36.5 96v786h368v-649z" />
    <glyph glyph-name="W" unicode="W" horiz-adv-x="1675" 
d="M1616 152q0 -63 -44.5 -107.5t-107.5 -44.5h-1253q-60 0 -106 41t-46 98v1200h363v-876q0 -57 32 -94t85 -37q51 0 83.5 37t32.5 94v876h365v-876q0 -57 32 -94t85 -37q52 0 83 36.5t31 94.5v876h365v-1187z" />
    <glyph glyph-name="X" unicode="X" horiz-adv-x="1094" 
d="M1040 0h-368v377q0 56 -36 95.5t-89 39.5t-89 -39.5t-36 -95.5v-377h-369v469q0 72 32 120t124 101v6q-94 55 -125 102.5t-31 116.5v424h369v-348q0 -56 36 -95.5t89 -39.5t89 39.5t36 95.5v348h368v-424q0 -69 -30.5 -116.5t-124.5 -102.5v-6q92 -53 123.5 -101
t31.5 -120v-469z" />
    <glyph glyph-name="Y" unicode="Y" horiz-adv-x="1090" 
d="M1040 578q0 -64 -43 -108t-106 -44h-68q-36 0 -64 -24.5t-28 -57.5v-344h-369v344q0 35 -27 58.5t-65 23.5h-69q-61 0 -106.5 41.5t-45.5 97.5v774h369v-479q0 -57 36 -96t89 -39t91 39.5t38 95.5v479h368v-761z" />
    <glyph glyph-name="Z" unicode="Z" horiz-adv-x="1040" 
d="M991 0h-942v215q0 73 14.5 116t55.5 97l311 418q24 33 35.5 58.5t11.5 43.5q0 8 -0.5 11.5t-1.5 5.5q-5 19 -24.5 29t-57.5 10h-336v335h922v-256q0 -75 -10.5 -106.5t-42.5 -75.5l-297 -403q-27 -35 -39 -60t-12 -45v-9.5t2 -7.5q5 -18 25.5 -27t60.5 -9h325v-340z" />
    <glyph glyph-name="bracketleft" unicode="[" horiz-adv-x="520" 
d="M479 -184h-262q-66 0 -112 45.5t-46 111.5v1336q0 66 46 111.5t112 45.5h262v-200q-104 0 -154.5 -135t-50.5 -476v-24q0 -342 50.5 -477.5t154.5 -135.5v-202z" />
    <glyph glyph-name="backslash" unicode="\" horiz-adv-x="778" 
d="M768 -113h-170l-588 1512h170z" />
    <glyph glyph-name="bracketright" unicode="]" horiz-adv-x="520" 
d="M461 -27q0 -66 -46 -111.5t-112 -45.5h-262v202q104 0 154.5 135.5t50.5 477.5v24q0 341 -50.5 476t-154.5 135v200h262q66 0 112 -45.5t46 -111.5v-1336z" />
    <glyph glyph-name="asciicircum" unicode="^" horiz-adv-x="1536" 
d="M1278 553q0 -41 -27.5 -69.5t-66.5 -28.5q-27 0 -51.5 14t-36.5 37l-328 586l-330 -586q-12 -23 -35 -37t-49 -14q-38 0 -67 29.5t-29 68.5q0 12 3 24.5t9 22.5l418 741h162l416 -741q6 -10 9 -22.5t3 -24.5z" />
    <glyph glyph-name="underscore" unicode="_" horiz-adv-x="1024" 
d="M1024 -233h-1024v100h1024v-100z" />
    <glyph glyph-name="grave" unicode="`" horiz-adv-x="1024" 
d="M745 1049q0 -25 -17 -42.5t-42 -17.5q-37 0 -355 148q-41 19 -52 24l94 170l342 -229q15 -10 22.5 -24t7.5 -29z" />
    <glyph glyph-name="a" unicode="a" horiz-adv-x="979" 
d="M926 0h-736q-57 0 -97 39.5t-40 95.5v320q0 57 40.5 99t96.5 42h340q23 0 39.5 17t16.5 40t-16.5 39.5t-39.5 16.5h-452v233h710q58 0 98 -39.5t40 -95.5v-807zM594 299q0 43 -31 72.5t-78 29.5q-46 0 -76 -29t-30 -73t30 -73t76 -29q47 0 78 29.5t31 72.5z" />
    <glyph glyph-name="b" unicode="b" horiz-adv-x="1004" 
d="M950 137q0 -57 -40 -97t-97 -40h-760v1339h344v-397h416q57 0 97 -40t40 -97v-668zM614 485q0 93 -28.5 142t-83.5 49q-54 0 -83.5 -49.5t-29.5 -141.5q0 -95 30.5 -150.5t82.5 -55.5q53 0 82.5 55t29.5 151z" />
    <glyph glyph-name="c" unicode="c" horiz-adv-x="983" 
d="M934 137q0 -57 -40 -97t-97 -40h-607q-56 0 -96.5 40t-40.5 97v668q0 57 40.5 97t96.5 40h607q57 0 97 -40t40 -97v-252h-326q-10 62 -37 93.5t-69 31.5q-55 0 -84 -49t-29 -142q0 -97 30 -152.5t83 -55.5q37 0 65 30t38 80h329v-252z" />
    <glyph glyph-name="d" unicode="d" horiz-adv-x="1004" 
d="M950 0h-760q-56 0 -96.5 40t-40.5 97v670q0 56 40 95.5t97 39.5h416v397h344v-1339zM612 485q0 93 -28.5 142t-83.5 49t-84 -49.5t-29 -141.5q0 -95 30.5 -150.5t82.5 -55.5q53 0 82.5 55t29.5 151z" />
    <glyph glyph-name="e" unicode="e" horiz-adv-x="975" 
d="M922 483q0 -56 -40 -95.5t-96 -39.5h-342q-22 0 -38.5 -17t-16.5 -40t16 -39t39 -16h461v-236h-715q-56 0 -96.5 40t-40.5 97v668q0 57 40.5 97t96.5 40h596q56 0 96 -40.5t40 -96.5v-322zM598 639q0 44 -31 73t-78 29q-45 0 -75.5 -28.5t-30.5 -73.5t30.5 -73.5
t75.5 -28.5q47 0 78 29t31 73z" />
    <glyph glyph-name="f" unicode="f" horiz-adv-x="750" 
d="M723 705h-125q-46 0 -68 -23t-22 -70v-612h-344v612q0 46 -23 69.5t-69 23.5h-37v237h129v207q0 57 39 97t96 40h424v-229h-176q-24 0 -42 -16.5t-18 -41.5q0 -24 18 -40.5t42 -16.5h176v-237z" />
    <glyph glyph-name="g" unicode="g" horiz-adv-x="1004" 
d="M950 -242q0 -56 -40 -95.5t-97 -39.5h-733v227h450q36 0 60 22t24 54q0 31 -21.5 52.5t-53.5 21.5h-349q-57 0 -97 39.5t-40 95.5v670q0 57 40.5 97t96.5 40h760v-1184zM614 485q0 93 -28.5 142t-83.5 49q-54 0 -83.5 -49.5t-29.5 -141.5q0 -95 30.5 -150.5t82.5 -55.5
q53 0 82.5 55t29.5 151z" />
    <glyph glyph-name="h" unicode="h" horiz-adv-x="967" 
d="M913 0h-344v567q0 36 -25 61t-61 25q-35 0 -60.5 -25t-25.5 -61v-567h-344v1339h344v-397h381q57 0 96 -40t39 -97v-805z" />
    <glyph glyph-name="i" unicode="i" horiz-adv-x="459" 
d="M401 1069h-344v270h344v-270zM401 0h-344v942h344v-942z" />
    <glyph glyph-name="j" unicode="j" horiz-adv-x="553" 
d="M496 1069h-344v270h344v-270zM496 -240q0 -56 -40.5 -96.5t-97.5 -40.5h-370v225h71q47 0 70 22.5t23 68.5v1003h344v-1182z" />
    <glyph glyph-name="k" unicode="k" horiz-adv-x="967" 
d="M913 0h-344v252q0 35 -25 60.5t-61 25.5q-35 0 -60.5 -25.5t-25.5 -60.5v-252h-344v1339h342v-620q0 -35 26.5 -60.5t61.5 -25.5t59.5 25t24.5 61v223h344v-307q0 -57 -31 -92.5t-87 -42.5v-17q57 -7 88.5 -43t31.5 -94v-346z" />
    <glyph glyph-name="l" unicode="l" horiz-adv-x="459" 
d="M401 0h-344v1339h344v-1339z" />
    <glyph glyph-name="m" unicode="m" horiz-adv-x="1413" 
d="M1360 0h-336v565q0 38 -21 62t-55 24q-33 0 -54.5 -24t-21.5 -62v-565h-329v565q0 37 -22 61.5t-56 24.5t-55 -24t-21 -62v-565h-336v942h1170q57 0 97 -39.5t40 -95.5v-807z" />
    <glyph glyph-name="n" unicode="n" horiz-adv-x="967" 
d="M913 0h-344v569q0 36 -24.5 61t-59.5 25t-61.5 -25.5t-26.5 -60.5v-569h-344v942h725q57 0 96 -40t39 -97v-805z" />
    <glyph glyph-name="o" unicode="o" horiz-adv-x="1004" 
d="M950 137q0 -57 -40 -97t-97 -40h-623q-56 0 -96.5 40t-40.5 97v668q0 57 40.5 97t96.5 40h623q57 0 97 -40t40 -97v-668zM614 485q0 93 -28.5 142t-83.5 49q-54 0 -83.5 -49.5t-29.5 -141.5q0 -95 30.5 -150.5t82.5 -55.5q53 0 82.5 55t29.5 151z" />
    <glyph glyph-name="p" unicode="p" horiz-adv-x="1004" 
d="M950 137q0 -57 -40 -97t-97 -40h-416v-379h-344v1321h760q57 0 97 -39.5t40 -95.5v-670zM614 485q0 93 -28.5 142t-83.5 49q-54 0 -83.5 -49.5t-29.5 -141.5q0 -95 30.5 -150.5t82.5 -55.5q53 0 82.5 55t29.5 151z" />
    <glyph glyph-name="q" unicode="q" horiz-adv-x="1004" 
d="M950 -377h-344v377h-416q-56 0 -96.5 40t-40.5 97v670q0 56 40 95.5t97 39.5h760v-1319zM614 485q0 92 -29 141.5t-83 49.5q-55 0 -84 -49t-29 -142q0 -96 30 -151t83 -55q52 0 82 55.5t30 150.5z" />
    <glyph glyph-name="r" unicode="r" horiz-adv-x="893" 
d="M860 477h-301v107q0 36 -23.5 61t-58.5 25q-34 0 -57 -25t-23 -61v-584h-344v942h670q57 0 97 -40t40 -97v-328z" />
    <glyph glyph-name="s" unicode="s" horiz-adv-x="954" 
d="M901 137q0 -57 -39.5 -97t-95.5 -40h-707v233h408q25 0 43 18.5t18 43.5q0 24 -18 40.5t-43 16.5h-277q-57 0 -97 38.5t-40 94.5v320q0 57 40.5 97t96.5 40h691v-233h-398q-24 0 -40.5 -16.5t-16.5 -41.5t16.5 -42t40.5 -17h281q57 0 97 -39.5t40 -95.5v-320z" />
    <glyph glyph-name="t" unicode="t" horiz-adv-x="709" 
d="M682 705h-82q-46 0 -69 -23.5t-23 -69.5v-284q0 -46 23 -69t69 -23h80v-236h-381q-57 0 -96 40t-39 97v475q0 46 -23 69.5t-69 23.5h-37v237h129v266h344v-266h174v-237z" />
    <glyph glyph-name="u" unicode="u" horiz-adv-x="967" 
d="M913 137q0 -57 -40 -97t-97 -40h-586q-56 0 -96.5 40t-40.5 97v805h344v-575q0 -36 25.5 -61t60.5 -25q36 0 61 25t25 61v575h344v-805z" />
    <glyph glyph-name="v" unicode="v" horiz-adv-x="958" 
d="M909 506q0 -39 -6 -77t-16 -67q-96 -270 -125 -362h-567q-33 100 -123 362q-11 34 -17 71.5t-6 72.5v436h344v-543q0 -35 26.5 -60.5t61.5 -25.5t59.5 25.5t24.5 60.5v543h344v-436z" />
    <glyph glyph-name="w" unicode="w" horiz-adv-x="1413" 
d="M1360 135q0 -56 -40 -95.5t-97 -39.5h-1033q-56 0 -96.5 40t-40.5 97v805h336v-567q0 -37 22 -61.5t56 -24.5t55 24t21 62v567h329v-567q0 -37 22 -61.5t56 -24.5t54 24t20 62v567h336v-807z" />
    <glyph glyph-name="x" unicode="x" horiz-adv-x="971" 
d="M922 0h-353v244q0 35 -24.5 60.5t-59.5 25.5t-61.5 -25.5t-26.5 -60.5v-244h-348v367q0 41 30.5 74.5t92.5 60.5q-71 34 -95 64t-24 71v305h344v-229q0 -36 25.5 -61t60.5 -25q36 0 61 25t25 61v229h344v-303q0 -41 -22.5 -70.5t-93.5 -66.5q69 -32 97 -64t28 -71v-367z
" />
    <glyph glyph-name="y" unicode="y" horiz-adv-x="971" 
d="M918 -240q0 -56 -42 -96.5t-100 -40.5h-696v225h418q34 0 59 24t25 56q0 31 -21 51.5t-53 20.5h-320q-56 0 -95.5 40t-39.5 97v805h344v-563q0 -35 27 -60.5t63 -25.5t61 25.5t25 60.5v563h345v-1182z" />
    <glyph glyph-name="z" unicode="z" horiz-adv-x="885" 
d="M844 0h-803v199q0 50 14.5 86t53.5 75l225 234q16 16 24.5 32.5t8.5 30.5q0 6 -0.5 9t-1.5 5q-5 17 -19.5 25.5t-38.5 8.5h-258v237h782v-219q0 -62 -12.5 -95t-40.5 -59l-225 -213q-21 -21 -31 -38.5t-10 -32.5q0 -6 0.5 -9.5t1.5 -5.5q4 -15 20 -23.5t44 -8.5h266v-238
z" />
    <glyph glyph-name="braceleft" unicode="{" horiz-adv-x="598" 
d="M557 -184h-262q-66 0 -112 45.5t-46 111.5v510q0 25 -18.5 43.5t-44.5 18.5h-54v190h54q25 0 44 19.5t19 44.5v508q0 66 46 111.5t112 45.5h262v-200q-103 0 -152.5 -107t-52.5 -369q0 -5 -1 -13.5t-1 -13.5q-2 -49 -32.5 -79.5t-84.5 -36.5v-6q55 -7 85 -36.5t32 -78.5
q0 -10 1 -26t1 -24q5 -249 54.5 -352.5t150.5 -103.5v-202z" />
    <glyph glyph-name="bar" unicode="|" horiz-adv-x="332" 
d="M254 -483h-176v2048h176v-2048z" />
    <glyph glyph-name="braceright" unicode="}" horiz-adv-x="598" 
d="M578 545h-54q-26 0 -44.5 -18.5t-18.5 -43.5v-510q0 -66 -46 -111.5t-112 -45.5h-262v202q101 0 150.5 103.5t54.5 352.5q0 8 1 24t1 26q2 49 32 78.5t85 36.5v6q-54 6 -84.5 36.5t-32.5 79.5q0 5 -1 13.5t-1 13.5q-3 262 -52.5 369t-152.5 107v200h262q66 0 112 -45.5
t46 -111.5v-508q0 -25 19 -44.5t44 -19.5h54v-190z" />
    <glyph glyph-name="asciitilde" unicode="~" horiz-adv-x="1536" 
d="M1317 727q-55 -103 -138.5 -159t-183.5 -56q-95 0 -234 71.5t-214 71.5q-66 0 -116.5 -36t-80.5 -105l-131 113q60 109 140.5 165t179.5 56q94 0 233.5 -70.5t212.5 -70.5q67 0 118 36t81 103z" />
    <glyph glyph-name="uni00A0" unicode="&#xa0;" horiz-adv-x="1159" 
 />
    <glyph glyph-name="exclamdown" unicode="&#xa1;" horiz-adv-x="492" 
d="M428 1040h-365v299h365v-299zM434 0h-377l62 930h254z" />
    <glyph glyph-name="cent" unicode="&#xa2;" horiz-adv-x="795" 
d="M735 385q0 -48 -33.5 -81.5t-80.5 -33.5h-140v-159h-168v159h-139q-48 0 -81.5 33.5t-33.5 81.5v569q0 48 34 82.5t81 34.5h139v152h168v-152h140q47 0 80.5 -34.5t33.5 -82.5v-209h-239q-10 52 -33 79.5t-57 27.5q-45 0 -71 -46t-26 -126t26 -127t71 -47q30 0 52.5 22.5
t37.5 67.5h239v-211z" />
    <glyph glyph-name="sterling" unicode="&#xa3;" horiz-adv-x="1229" 
d="M1176 150q0 -62 -44.5 -106t-105.5 -44h-973v332h8q81 0 110 20.5t34 65.5l18 196h-170v185h187l34 388q6 65 45.5 108.5t96.5 43.5h631v-331h-332q-98 0 -106 -167q-1 -29 -3 -42h211v-185h-227l-6 -51q-11 -98 -11 -145q0 -39 24.5 -62.5t64.5 -23.5h141
q45 0 71.5 29.5t26.5 78.5h275v-290z" />
    <glyph glyph-name="currency" unicode="&#xa4;" horiz-adv-x="1249" 
d="M1176 152q0 -63 -44.5 -107.5t-107.5 -44.5h-680q-63 0 -107 44.5t-44 107.5v350h-193l49 123h144v82h-193l51 122h142v359q0 63 44 107t107 44h680q63 0 107.5 -44t44.5 -107v-354h-334q-8 80 -48.5 131t-97.5 51q-52 0 -86.5 -47t-50.5 -140h234l-52 -122h-192v-82h201
l-52 -123h-137q16 -88 50 -132t85 -44q57 0 98 54.5t48 135.5h334v-364z" />
    <glyph glyph-name="yen" unicode="&#xa5;" horiz-adv-x="1253" 
d="M1251 541h-137q-13 -50 -53 -82.5t-90 -32.5h-4h-68q-35 0 -61.5 -24.5t-26.5 -57.5v-344h-369v342q0 35 -27 59.5t-65 24.5h-67q-53 0 -94.5 32.5t-51.5 82.5h-135v123h133v79h-133v123h133v473h369v-479q0 -57 35.5 -96t87.5 -39t87.5 39t35.5 96v479h368v-473h133
v-123h-133v-79h133v-123z" />
    <glyph glyph-name="brokenbar" unicode="&#xa6;" horiz-adv-x="332" 
d="M254 709h-176v688h176v-688zM254 -315h-176v688h176v-688z" />
    <glyph glyph-name="section" unicode="&#xa7;" horiz-adv-x="1044" 
d="M985 -190q0 -59 -41.5 -100.5t-99.5 -41.5h-643q-59 0 -100.5 41.5t-41.5 100.5v264h363v-19q0 -45 29 -73.5t73 -28.5q55 0 84 30.5t29 88.5q0 44 -32.5 74t-84.5 30h-317q-60 0 -100 41.5t-40 101.5v173q0 72 32 111.5t104 53.5q-48 15 -80.5 56t-32.5 88v397
q0 58 41.5 99.5t99.5 41.5h592q58 0 98.5 -41t40.5 -100v-231h-323v16q0 38 -28.5 64t-71.5 26q-45 0 -74 -29t-29 -73q0 -48 31 -74.5t86 -26.5h278q59 0 100.5 -40.5t41.5 -98.5v-149q0 -68 -28 -108t-89 -58q58 -8 95.5 -48t37.5 -94v-464zM649 522q0 48 -33.5 81.5
t-80.5 33.5q-48 0 -81.5 -33.5t-33.5 -81.5q0 -46 33.5 -80t81.5 -34q47 0 80.5 34t33.5 80z" />
    <glyph glyph-name="dieresis" unicode="&#xa8;" horiz-adv-x="1024" 
d="M793 1016h-222v221h222v-221zM453 1016h-222v221h222v-221z" />
    <glyph glyph-name="copyright" unicode="&#xa9;" horiz-adv-x="1503" 
d="M1444 645q0 -287 -205.5 -492.5t-493.5 -205.5q-279 0 -482.5 207.5t-203.5 490.5q0 286 201 490t485 204q292 0 495.5 -201.5t203.5 -492.5zM1329 645q0 241 -168 409.5t-409 168.5q-245 0 -414.5 -167.5t-169.5 -410.5q0 -241 171 -411.5t413 -170.5q243 0 410 169
t167 413zM1094 389q0 -49 -42.5 -95t-88.5 -46h-445q-46 0 -87.5 46t-41.5 95v537q0 49 41.5 94t87.5 45h445q46 0 88.5 -45t42.5 -94v-197h-260q-8 53 -30 81t-56 28q-45 0 -68 -42.5t-23 -123.5q0 -85 24 -134t67 -49q29 0 51.5 25.5t34.5 71.5h260v-197z" />
    <glyph glyph-name="ordfeminine" unicode="&#xaa;" horiz-adv-x="635" 
d="M575 768h-434q-33 0 -57.5 24t-24.5 58v197q0 34 24.5 58.5t57.5 24.5h203q14 0 24.5 11.5t10.5 25.5t-10.5 24.5t-24.5 10.5h-264v137h412q34 0 58.5 -24t24.5 -58v-489zM381 950q0 27 -18 45.5t-46 18.5q-27 0 -46 -19t-19 -45t19 -45.5t46 -19.5q28 0 46 19t18 46z
" />
    <glyph glyph-name="guillemotleft" unicode="&#xab;" horiz-adv-x="963" 
d="M922 164q0 -40 -28.5 -69t-68.5 -29q-21 0 -41 9.5t-34 26.5l-297 369l297 369q14 17 33 27t40 10q41 0 70 -28.5t29 -68.5q0 -17 -6 -33t-17 -28l-201 -248l201 -248q11 -12 17 -27.5t6 -31.5zM512 164q0 -40 -28.5 -69t-67.5 -29q-21 0 -41.5 9.5t-34.5 26.5l-297 369
l297 369q14 17 33.5 27t40.5 10q40 0 69 -28.5t29 -68.5q0 -17 -6 -33t-17 -28l-200 -248l200 -248q11 -12 17 -27.5t6 -31.5z" />
    <glyph glyph-name="logicalnot" unicode="&#xac;" horiz-adv-x="1188" 
d="M1116 213h-233v350h-811v234h1044v-584z" />
    <glyph glyph-name="uni00AD" unicode="&#xad;" horiz-adv-x="557" 
d="M496 449h-435v233h435v-233z" />
    <glyph glyph-name="registered" unicode="&#xae;" horiz-adv-x="1503" 
d="M1444 645q0 -287 -205.5 -492.5t-493.5 -205.5q-279 0 -482.5 207.5t-203.5 490.5q0 286 201 490t485 204q292 0 495.5 -201.5t203.5 -492.5zM1329 645q0 241 -168 409.5t-409 168.5q-245 0 -414.5 -167.5t-169.5 -410.5q0 -241 171 -411.5t413 -170.5q243 0 410 169
t167 413zM1083 729q0 -33 -24.5 -55.5t-63.5 -22.5v-8q38 0 62 -21.5t26 -55.5v-318h-252v184q0 35 -24.5 58.5t-61.5 23.5q-36 0 -61 -23.5t-25 -58.5v-184h-256v817h576q43 0 73.5 -28t30.5 -66v-242zM836 795q0 40 -26.5 68t-68.5 28t-68 -28t-26 -68t26 -67.5t68 -27.5
q43 0 69 27.5t26 67.5z" />
    <glyph glyph-name="degree" unicode="&#xb0;" horiz-adv-x="664" 
d="M604 1067q0 -112 -80 -192t-192 -80t-192.5 80t-80.5 192t80.5 192t192.5 80t192 -80t80 -192zM477 1067q0 60 -42.5 101.5t-102.5 41.5t-102 -41.5t-42 -101.5t42 -102.5t102 -42.5t102.5 42.5t42.5 102.5z" />
    <glyph glyph-name="plusminus" unicode="&#xb1;" horiz-adv-x="1188" 
d="M1116 668h-405v-324h-234v324h-405v233h405v324h234v-324h405v-233zM1116 0h-1044v233h1044v-233z" />
    <glyph glyph-name="uni00B2" unicode="&#xb2;" horiz-adv-x="721" 
d="M625 971l-197 -148q-12 -10 -16 -16t-4 -12q0 -10 8.5 -15.5t21.5 -5.5h240v-199h-637v168q0 41 12.5 64.5t48.5 50.5q265 189 267 191q27 20 37 36.5t10 38.5t-16.5 36t-41.5 14q-31 0 -45 -17t-14 -61v-29h-256v178q0 39 31 66.5t73 27.5h426q44 0 75.5 -27.5
t31.5 -66.5v-160q0 -46 -11.5 -68t-43.5 -46z" />
    <glyph glyph-name="uni00B3" unicode="&#xb3;" horiz-adv-x="717" 
d="M625 969q25 -10 38 -28t13 -42v-229q0 -38 -30 -66.5t-71 -28.5h-430q-43 0 -73.5 27.5t-30.5 67.5v166h246q0 -35 16 -51.5t49 -16.5q31 0 48.5 16.5t17.5 44.5q0 32 -22.5 46t-88.5 14v160q74 0 92.5 12.5t18.5 48.5q0 24 -17.5 37.5t-48.5 13.5q-29 0 -43.5 -13
t-21.5 -54h-246v151q0 39 31.5 66.5t74.5 27.5h424q43 0 74 -27.5t31 -66.5v-203q0 -25 -13.5 -44.5t-37.5 -28.5z" />
    <glyph glyph-name="acute" unicode="&#xb4;" horiz-adv-x="1024" 
d="M745 1161q-11 -5 -52 -24q-318 -148 -355 -148q-25 0 -42 17.5t-17 42.5q0 15 7.5 29t22.5 24l342 229z" />
    <glyph glyph-name="mu" unicode="&#xb5;" horiz-adv-x="958" 
d="M53 942h340v-575q0 -36 25.5 -61t60.5 -25q36 0 61 25t25 61v575h340v-805q0 -57 -40 -97t-97 -40h-375v-377h-340v1319z" />
    <glyph glyph-name="paragraph" unicode="&#xb6;" horiz-adv-x="1061" 
d="M1001 -377h-165v1546h-111v-1546h-166v830q0 44 -27 69t-73 25h-262q-62 0 -104 42t-42 103v502q0 61 42 103t104 42h804v-1716z" />
    <glyph glyph-name="periodcentered" unicode="&#xb7;" horiz-adv-x="426" 
d="M367 315h-308v279h308v-279z" />
    <glyph glyph-name="cedilla" unicode="&#xb8;" horiz-adv-x="1024" 
d="M670 -256q0 -81 -54 -134t-163 -79q-5 -1 -12 -2q-19 -4 -27 -4q-27 0 -44.5 15.5t-17.5 39.5q0 42 91.5 66t91.5 92q0 28 -22.5 46.5t-53.5 18.5q-10 0 -20.5 -1.5t-19.5 -3.5l-59 77l121 207l99 -57q-28 -49 -42.5 -72.5t-27.5 -42.5q76 -10 118 -53t42 -113z" />
    <glyph glyph-name="uni00B9" unicode="&#xb9;" horiz-adv-x="389" 
d="M102 575v529q0 14 -14 25.5t-33 11.5h-55v198h348v-764h-246z" />
    <glyph glyph-name="ordmasculine" unicode="&#xba;" horiz-adv-x="651" 
d="M592 850q0 -34 -24 -58t-58 -24h-369q-33 0 -57.5 24t-24.5 58v407q0 34 24.5 58t57.5 24h369q34 0 58 -24t24 -58v-407zM395 1053q0 57 -18.5 91t-50.5 34t-51 -34t-19 -91t18.5 -90t51.5 -33q32 0 50.5 33t18.5 90z" />
    <glyph glyph-name="guillemotright" unicode="&#xbb;" horiz-adv-x="963" 
d="M920 471l-297 -369q-15 -17 -34 -26.5t-40 -9.5q-40 0 -69 28t-29 68q0 17 5.5 33t16.5 28l201 248l-201 248q-11 12 -16.5 27.5t-5.5 31.5q0 41 28 70t68 29q21 0 41.5 -10t34.5 -27zM510 471l-297 -369q-14 -17 -33.5 -26.5t-40.5 -9.5q-40 0 -69 28t-29 68q0 17 6 33
t16 28l201 248l-201 248q-11 12 -16.5 27.5t-5.5 31.5q0 41 28.5 70t67.5 29q21 0 41.5 -10t34.5 -27z" />
    <glyph glyph-name="onequarter" unicode="&#xbc;" horiz-adv-x="1413" 
d="M1331 170q-20 0 -33.5 -12t-13.5 -29v-129h-242v121q0 26 -12.5 37.5t-40.5 11.5h-229q-39 0 -71 26t-32 62v135q0 43 27 110l2 5l72 182q14 37 44.5 55.5t74.5 18.5h407v-350q0 -22 11 -32.5t32 -10.5h35v-201h-31zM991 565q-29 0 -47 -27.5t-18 -70.5t18 -69.5
t47 -26.5t48.5 27t19.5 69q0 43 -19 70.5t-49 27.5zM952 1339l-567 -1339h-170l567 1339h170zM154 575v529q0 14 -14 25.5t-34 11.5h-55v198h348v-764h-245z" />
    <glyph glyph-name="onehalf" unicode="&#xbd;" horiz-adv-x="1440" 
d="M952 1339l-567 -1339h-170l567 1339h170zM154 575v529q0 14 -14 25.5t-34 11.5h-55v198h348v-764h-245zM1323 395l-197 -147q-12 -10 -16 -16.5t-4 -12.5q0 -9 8 -14.5t23 -5.5h241v-199h-637v168q0 42 12.5 65.5t47.5 49.5q264 188 266 190q27 20 37 36.5t10 39.5
q0 21 -16 35t-41 14q-31 0 -45.5 -16.5t-14.5 -61.5v-28h-256v178q0 38 31 66t74 28h426q44 0 75 -27.5t31 -66.5v-160q0 -47 -11 -68.5t-44 -46.5z" />
    <glyph glyph-name="threequarters" unicode="&#xbe;" horiz-adv-x="1679" 
d="M1597 170q-20 0 -33.5 -12t-13.5 -29v-129h-241v121q0 26 -13 37.5t-41 11.5h-229q-39 0 -70.5 26t-31.5 62v135q0 43 26 109l2 5l72 183q15 37 45 55.5t74 18.5h407v-350q0 -22 11 -32.5t32 -10.5h35v-201h-31zM1257 565q-28 0 -46.5 -27.5t-18.5 -70.5t18 -69.5
t47 -26.5q30 0 49 27t19 69q0 43 -19 70.5t-49 27.5zM1219 1339l-568 -1339h-170l568 1339h170zM645 969q25 -10 38 -28t13 -42v-229q0 -38 -29.5 -66.5t-70.5 -28.5h-430q-44 0 -74.5 27.5t-30.5 67.5v166h246q0 -35 16 -51.5t50 -16.5q31 0 48 16.5t17 44.5q0 32 -22.5 46
t-87.5 14v160q74 0 92 12.5t18 48.5q0 24 -17 37.5t-46 13.5q-30 0 -45.5 -13.5t-22.5 -53.5h-246v151q0 39 31.5 66.5t75.5 27.5h424q43 0 73.5 -27.5t30.5 -66.5v-203q0 -25 -13.5 -44.5t-37.5 -28.5z" />
    <glyph glyph-name="questiondown" unicode="&#xbf;" horiz-adv-x="1085" 
d="M694 1040h-364v299h364v-299zM1026 150q0 -63 -44 -106.5t-108 -43.5h-673q-63 0 -106.5 43.5t-43.5 106.5v487q0 63 41.5 104t104.5 41h51q29 0 55.5 24.5t26.5 55.5v68h364v-332h-127q-62 0 -105.5 -41t-43.5 -98q0 -58 37.5 -96.5t95.5 -38.5t97.5 34.5t39.5 87.5v11
h338v-307z" />
    <glyph glyph-name="Agrave" unicode="&#xc0;" 
d="M1047 0h-367v166q0 56 -38 95.5t-91 39.5q-52 0 -87.5 -39t-35.5 -96v-166h-369v1188q0 63 44.5 107t107.5 44h684q63 0 107.5 -44t44.5 -107v-1188zM686 811q0 89 -37 145t-98 56t-97 -55.5t-36 -145.5t36 -144.5t97 -54.5t98 55t37 144zM786 1446q0 -25 -17 -42.5
t-42 -17.5q-37 0 -355 148q-41 19 -52 24l94 170l342 -229q15 -10 22.5 -24t7.5 -29z" />
    <glyph glyph-name="Aacute" unicode="&#xc1;" 
d="M1047 0h-367v166q0 56 -38 95.5t-91 39.5q-52 0 -87.5 -39t-35.5 -96v-166h-369v1188q0 63 44.5 107t107.5 44h684q63 0 107.5 -44t44.5 -107v-1188zM686 811q0 89 -37 145t-98 56t-97 -55.5t-36 -145.5t36 -144.5t97 -54.5t98 55t37 144zM786 1558q-11 -5 -52 -24
q-318 -148 -355 -148q-25 0 -42 17.5t-17 42.5q0 15 7.5 29t22.5 24l342 229z" />
    <glyph glyph-name="Acircumflex" unicode="&#xc2;" 
d="M1047 0h-367v166q0 56 -38 95.5t-91 39.5q-52 0 -87.5 -39t-35.5 -96v-166h-369v1188q0 63 44.5 107t107.5 44h684q63 0 107.5 -44t44.5 -107v-1188zM686 811q0 89 -37 145t-98 56t-97 -55.5t-36 -145.5t36 -144.5t97 -54.5t98 55t37 144zM846 1446q0 -25 -17.5 -42.5
t-42.5 -17.5q-36 0 -199 117q-26 19 -33 24q-11 -6 -42 -29q-156 -112 -192 -112q-24 0 -42 18.5t-18 41.5q0 14 6 27t17 22l270 262l270 -262q11 -11 17 -24t6 -25z" />
    <glyph glyph-name="Atilde" unicode="&#xc3;" 
d="M1047 0h-367v166q0 56 -38 95.5t-91 39.5q-52 0 -87.5 -39t-35.5 -96v-166h-369v1188q0 63 44.5 107t107.5 44h684q63 0 107.5 -44t44.5 -107v-1188zM686 811q0 89 -37 145t-98 56t-97 -55.5t-36 -145.5t36 -144.5t97 -54.5t98 55t37 144zM909 1540q-47 -65 -107.5 -100
t-125.5 -35q-61 0 -136 38.5t-114 38.5q-38 0 -75 -19t-60 -50l-92 94q44 61 102 94t123 33q63 0 141 -39t115 -39q38 0 74.5 20t60.5 54z" />
    <glyph glyph-name="Adieresis" unicode="&#xc4;" 
d="M1047 0h-367v166q0 56 -38 95.5t-91 39.5q-52 0 -87.5 -39t-35.5 -96v-166h-369v1188q0 63 44.5 107t107.5 44h684q63 0 107.5 -44t44.5 -107v-1188zM686 811q0 89 -37 145t-98 56t-97 -55.5t-36 -145.5t36 -144.5t97 -54.5t98 55t37 144zM834 1413h-222v221h222v-221z
M494 1413h-222v221h222v-221z" />
    <glyph glyph-name="Aring" unicode="&#xc5;" 
d="M1047 0h-367v166q0 56 -38 95.5t-91 39.5q-52 0 -87.5 -39t-35.5 -96v-166h-369v1188q0 63 44.5 107t107.5 44h684q63 0 107.5 -44t44.5 -107v-1188zM686 811q0 89 -37 145t-98 56t-97 -55.5t-36 -145.5t36 -144.5t97 -54.5t98 55t37 144zM754 1583q0 -82 -59 -140.5
t-142 -58.5t-142 58.5t-59 140.5q0 83 59 143t142 60t142 -60t59 -143zM647 1583q0 40 -27 68t-67 28t-67 -28t-27 -68q0 -39 27 -65.5t67 -26.5t67 26.5t27 65.5z" />
    <glyph glyph-name="AE" unicode="&#xc6;" horiz-adv-x="1622" 
d="M1573 0h-893v166q0 56 -37 95.5t-90 39.5q-52 0 -88.5 -39t-36.5 -96v-166h-369v1188q0 63 44.5 107t107.5 44h1362v-335h-412q-40 0 -67 -25t-27 -61q0 -37 27 -62t67 -25h412v-319h-412q-40 0 -67 -25.5t-27 -62.5t27 -62.5t67 -25.5h412v-336zM686 811q0 89 -37 145
t-98 56t-97 -55.5t-36 -145.5t36 -144.5t97 -54.5t98 55t37 144z" />
    <glyph glyph-name="Ccedilla" unicode="&#xc7;" horiz-adv-x="1102" 
d="M1042 150q0 -63 -44.5 -106.5t-106.5 -43.5h-264l-49 -82q72 -8 114.5 -51t42.5 -111q0 -92 -77.5 -157.5t-178.5 -65.5q-26 0 -43.5 15.5t-17.5 39.5q0 41 90 67t90 91q0 28 -23 47t-55 19q-8 0 -16 -1.5t-17 -4.5l-59 77l68 117h-285q-62 0 -107 43.5t-45 106.5v1040
q0 62 45 105.5t107 43.5h680q62 0 106.5 -43.5t44.5 -105.5v-395h-352q-8 105 -42.5 161t-92.5 56q-68 0 -103.5 -86t-35.5 -256q0 -171 35.5 -256.5t103.5 -85.5q60 0 95 61t41 166h351v-405z" />
    <glyph glyph-name="Egrave" unicode="&#xc8;" horiz-adv-x="991" 
d="M942 0h-883v1339h883v-335h-412q-40 0 -67 -25t-27 -61q0 -37 27 -62t67 -25h412v-319h-412q-40 0 -67 -24.5t-27 -61.5t27.5 -63.5t66.5 -26.5h412v-336zM730 1446q0 -25 -17 -42.5t-42 -17.5q-37 0 -355 148q-41 19 -52 24l94 170l342 -229q15 -10 22.5 -24t7.5 -29z
" />
    <glyph glyph-name="Eacute" unicode="&#xc9;" horiz-adv-x="991" 
d="M942 0h-883v1339h883v-335h-412q-40 0 -67 -25t-27 -61q0 -37 27 -62t67 -25h412v-319h-412q-40 0 -67 -24.5t-27 -61.5t27.5 -63.5t66.5 -26.5h412v-336zM730 1558q-11 -5 -52 -24q-318 -148 -355 -148q-25 0 -42 17.5t-17 42.5q0 15 7.5 29t22.5 24l342 229z" />
    <glyph glyph-name="Ecircumflex" unicode="&#xca;" horiz-adv-x="991" 
d="M942 0h-883v1339h883v-335h-412q-40 0 -67 -25t-27 -61q0 -37 27 -62t67 -25h412v-319h-412q-40 0 -67 -24.5t-27 -61.5t27.5 -63.5t66.5 -26.5h412v-336zM790 1446q0 -25 -17.5 -42.5t-42.5 -17.5q-36 0 -199 117q-26 19 -33 24q-11 -6 -42 -29q-156 -112 -192 -112
q-24 0 -42 18.5t-18 41.5q0 14 6 27t17 22l270 262l270 -262q11 -11 17 -24t6 -25z" />
    <glyph glyph-name="Edieresis" unicode="&#xcb;" horiz-adv-x="991" 
d="M942 0h-883v1339h883v-335h-412q-40 0 -67 -25t-27 -61q0 -37 27 -62t67 -25h412v-319h-412q-40 0 -67 -24.5t-27 -61.5t27.5 -63.5t66.5 -26.5h412v-336zM778 1413h-222v221h222v-221zM438 1413h-222v221h222v-221z" />
    <glyph glyph-name="Igrave" unicode="&#xcc;" horiz-adv-x="492" 
d="M430 0h-369v1339h369v-1339zM480 1446q0 -25 -17 -42.5t-42 -17.5q-37 0 -355 148q-41 19 -52 24l94 170l342 -229q15 -10 22.5 -24t7.5 -29z" />
    <glyph glyph-name="Iacute" unicode="&#xcd;" horiz-adv-x="492" 
d="M430 0h-369v1339h369v-1339zM480 1558q-11 -5 -52 -24q-318 -148 -355 -148q-25 0 -42 17.5t-17 42.5q0 15 7.5 29t22.5 24l342 229z" />
    <glyph glyph-name="Icircumflex" unicode="&#xce;" horiz-adv-x="492" 
d="M430 0h-369v1339h369v-1339zM540 1446q0 -25 -17.5 -42.5t-42.5 -17.5q-36 0 -199 117q-26 19 -33 24q-11 -6 -42 -29q-156 -112 -192 -112q-24 0 -42 18.5t-18 41.5q0 14 6 27t17 22l270 262l270 -262q11 -11 17 -24t6 -25z" />
    <glyph glyph-name="Idieresis" unicode="&#xcf;" horiz-adv-x="492" 
d="M430 0h-369v1339h369v-1339zM528 1413h-222v221h222v-221zM188 1413h-222v221h222v-221z" />
    <glyph glyph-name="Eth" unicode="&#xd0;" horiz-adv-x="1159" 
d="M1100 152q0 -63 -44.5 -107.5t-107.5 -44.5h-835v596h-113v147h113v596h835q64 0 108 -43t44 -106v-1038zM748 672q0 166 -36.5 254t-105.5 88q-61 0 -96 -68.5t-43 -202.5h145v-147h-145q8 -130 43.5 -198t95.5 -68q69 0 105.5 87.5t36.5 254.5z" />
    <glyph glyph-name="Ntilde" unicode="&#xd1;" horiz-adv-x="1110" 
d="M1051 0h-369v877q0 56 -38 95.5t-91 39.5q-52 0 -88.5 -39.5t-36.5 -95.5v-877h-369v1339h840q61 0 106.5 -40.5t45.5 -96.5v-1202zM901 1540q-47 -65 -107.5 -100t-125.5 -35q-61 0 -136 38.5t-114 38.5q-38 0 -75 -19t-60 -50l-92 94q44 61 102 94t123 33q63 0 141 -39
t115 -39q38 0 74.5 20t60.5 54z" />
    <glyph glyph-name="Ograve" unicode="&#xd2;" horiz-adv-x="1126" 
d="M1067 152q0 -64 -43.5 -108t-105.5 -44h-707q-63 0 -107.5 44.5t-44.5 107.5v1036q0 63 44.5 107t107.5 44h707q62 0 105.5 -44t43.5 -107v-1036zM702 678q0 165 -35 249.5t-104 84.5t-104 -84.5t-35 -249.5q0 -167 35.5 -253.5t103.5 -86.5q69 0 104 86.5t35 253.5z
M796 1446q0 -25 -17 -42.5t-42 -17.5q-37 0 -355 148q-41 19 -52 24l94 170l342 -229q15 -10 22.5 -24t7.5 -29z" />
    <glyph glyph-name="Oacute" unicode="&#xd3;" horiz-adv-x="1126" 
d="M1067 152q0 -64 -43.5 -108t-105.5 -44h-707q-63 0 -107.5 44.5t-44.5 107.5v1036q0 63 44.5 107t107.5 44h707q62 0 105.5 -44t43.5 -107v-1036zM702 678q0 165 -35 249.5t-104 84.5t-104 -84.5t-35 -249.5q0 -167 35.5 -253.5t103.5 -86.5q69 0 104 86.5t35 253.5z
M796 1558q-11 -5 -52 -24q-318 -148 -355 -148q-25 0 -42 17.5t-17 42.5q0 15 7.5 29t22.5 24l342 229z" />
    <glyph glyph-name="Ocircumflex" unicode="&#xd4;" horiz-adv-x="1126" 
d="M1067 152q0 -64 -43.5 -108t-105.5 -44h-707q-63 0 -107.5 44.5t-44.5 107.5v1036q0 63 44.5 107t107.5 44h707q62 0 105.5 -44t43.5 -107v-1036zM702 678q0 165 -35 249.5t-104 84.5t-104 -84.5t-35 -249.5q0 -167 35.5 -253.5t103.5 -86.5q69 0 104 86.5t35 253.5z
M856 1446q0 -25 -17.5 -42.5t-42.5 -17.5q-36 0 -199 117q-26 19 -33 24q-11 -6 -42 -29q-156 -112 -192 -112q-24 0 -42 18.5t-18 41.5q0 14 6 27t17 22l270 262l270 -262q11 -11 17 -24t6 -25z" />
    <glyph glyph-name="Otilde" unicode="&#xd5;" horiz-adv-x="1126" 
d="M1067 152q0 -64 -43.5 -108t-105.5 -44h-707q-63 0 -107.5 44.5t-44.5 107.5v1036q0 63 44.5 107t107.5 44h707q62 0 105.5 -44t43.5 -107v-1036zM702 678q0 165 -35 249.5t-104 84.5t-104 -84.5t-35 -249.5q0 -167 35.5 -253.5t103.5 -86.5q69 0 104 86.5t35 253.5z
M919 1540q-47 -65 -107.5 -100t-125.5 -35q-61 0 -136 38.5t-114 38.5q-38 0 -75 -19t-60 -50l-92 94q44 61 102 94t123 33q63 0 141 -39t115 -39q38 0 74.5 20t60.5 54z" />
    <glyph glyph-name="Odieresis" unicode="&#xd6;" horiz-adv-x="1126" 
d="M1067 152q0 -64 -43.5 -108t-105.5 -44h-707q-63 0 -107.5 44.5t-44.5 107.5v1036q0 63 44.5 107t107.5 44h707q62 0 105.5 -44t43.5 -107v-1036zM702 678q0 165 -35 249.5t-104 84.5t-104 -84.5t-35 -249.5q0 -167 35.5 -253.5t103.5 -86.5q69 0 104 86.5t35 253.5z
M844 1413h-222v221h222v-221zM504 1413h-222v221h222v-221z" />
    <glyph glyph-name="multiply" unicode="&#xd7;" horiz-adv-x="1188" 
d="M1130 309l-167 -166l-369 371l-371 -371l-166 166l371 371l-371 369l166 165l371 -368l369 368l167 -165l-370 -369z" />
    <glyph glyph-name="Oslash" unicode="&#xd8;" horiz-adv-x="1126" 
d="M1067 152q0 -64 -43.5 -108t-105.5 -44h-533l-51 -156l-113 39l41 117h-51q-63 0 -107.5 44.5t-44.5 107.5v1036q0 63 44.5 107t107.5 44h508l49 148l113 -37l-39 -111h76q62 0 105.5 -44t43.5 -107v-1036zM612 1004q-11 6 -22 9t-25 3q-69 0 -106 -89.5t-37 -254.5
q0 -50 4 -96t12 -87zM705 672q0 63 -4.5 110.5t-12.5 83.5l-178 -522q13 -8 26 -12t27 -4q69 0 105.5 88.5t36.5 255.5z" />
    <glyph glyph-name="Ugrave" unicode="&#xd9;" 
d="M1047 152q0 -63 -44.5 -107.5t-107.5 -44.5h-684q-61 0 -106.5 40.5t-45.5 96.5v1202h369v-880q0 -57 36.5 -96t88.5 -39t88.5 39t36.5 96v880h369v-1187zM786 1446q0 -25 -17 -42.5t-42 -17.5q-37 0 -355 148q-41 19 -52 24l94 170l342 -229q15 -10 22.5 -24t7.5 -29z
" />
    <glyph glyph-name="Uacute" unicode="&#xda;" 
d="M1047 152q0 -63 -44.5 -107.5t-107.5 -44.5h-684q-61 0 -106.5 40.5t-45.5 96.5v1202h369v-880q0 -57 36.5 -96t88.5 -39t88.5 39t36.5 96v880h369v-1187zM786 1558q-11 -5 -52 -24q-318 -148 -355 -148q-25 0 -42 17.5t-17 42.5q0 15 7.5 29t22.5 24l342 229z" />
    <glyph glyph-name="Ucircumflex" unicode="&#xdb;" 
d="M1047 152q0 -63 -44.5 -107.5t-107.5 -44.5h-684q-61 0 -106.5 40.5t-45.5 96.5v1202h369v-880q0 -57 36.5 -96t88.5 -39t88.5 39t36.5 96v880h369v-1187zM846 1446q0 -25 -17.5 -42.5t-42.5 -17.5q-36 0 -199 117q-26 19 -33 24q-11 -6 -42 -29q-156 -112 -192 -112
q-24 0 -42 18.5t-18 41.5q0 14 6 27t17 22l270 262l270 -262q11 -11 17 -24t6 -25z" />
    <glyph glyph-name="Udieresis" unicode="&#xdc;" 
d="M1047 152q0 -63 -44.5 -107.5t-107.5 -44.5h-684q-61 0 -106.5 40.5t-45.5 96.5v1202h369v-880q0 -57 36.5 -96t88.5 -39t88.5 39t36.5 96v880h369v-1187zM834 1413h-222v221h222v-221zM494 1413h-222v221h222v-221z" />
    <glyph glyph-name="Yacute" unicode="&#xdd;" horiz-adv-x="1090" 
d="M1040 578q0 -64 -43 -108t-106 -44h-68q-36 0 -64 -24.5t-28 -57.5v-344h-369v344q0 35 -27 58.5t-65 23.5h-69q-61 0 -106.5 41.5t-45.5 97.5v774h369v-479q0 -57 36 -96t89 -39t91 39.5t38 95.5v479h368v-761zM778 1558q-11 -5 -52 -24q-318 -148 -355 -148
q-25 0 -42 17.5t-17 42.5q0 15 7.5 29t22.5 24l342 229z" />
    <glyph glyph-name="Thorn" unicode="&#xde;" horiz-adv-x="1096" 
d="M1040 371q0 -63 -44 -107.5t-107 -44.5h-357q-48 0 -76 -26t-28 -70v-123h-369v1339h369v-114q0 -51 26 -76t78 -25h357q63 0 107 -44t44 -107v-602zM682 676q0 66 -37 110.5t-98 44.5t-99 -45t-38 -110t38 -110.5t99 -45.5t98 45t37 111z" />
    <glyph glyph-name="germandbls" unicode="&#xdf;" horiz-adv-x="1245" 
d="M1198 129q0 -54 -37.5 -91.5t-91.5 -37.5h-557v236h264q42 0 67 23t25 60q0 33 -26 56.5t-66 23.5h-119q-60 0 -100.5 36t-40.5 89v140q0 77 53.5 137.5t53.5 116.5t-28.5 88t-80.5 32t-83.5 -36.5t-31.5 -96.5v-1282h-346v1573q0 60 41 101.5t101 41.5h657
q56 0 98.5 -39.5t42.5 -93.5v-213q0 -102 -71 -179.5t-72 -119.5v-4q0 -31 24.5 -50t61.5 -19h131q57 0 94 -38t37 -94v-360z" />
    <glyph glyph-name="agrave" unicode="&#xe0;" horiz-adv-x="979" 
d="M926 0h-736q-57 0 -97 39.5t-40 95.5v320q0 57 40.5 99t96.5 42h340q23 0 39.5 17t16.5 40t-16.5 39.5t-39.5 16.5h-452v233h710q58 0 98 -39.5t40 -95.5v-807zM594 299q0 43 -31 72.5t-78 29.5q-46 0 -76 -29t-30 -73t30 -73t76 -29q47 0 78 29.5t31 72.5zM723 1049
q0 -25 -17 -42.5t-42 -17.5q-37 0 -355 148q-41 19 -52 24l94 170l342 -229q15 -10 22.5 -24t7.5 -29z" />
    <glyph glyph-name="aacute" unicode="&#xe1;" horiz-adv-x="979" 
d="M926 0h-736q-57 0 -97 39.5t-40 95.5v320q0 57 40.5 99t96.5 42h340q23 0 39.5 17t16.5 40t-16.5 39.5t-39.5 16.5h-452v233h710q58 0 98 -39.5t40 -95.5v-807zM594 299q0 43 -31 72.5t-78 29.5q-46 0 -76 -29t-30 -73t30 -73t76 -29q47 0 78 29.5t31 72.5zM723 1161
q-11 -5 -52 -24q-318 -148 -355 -148q-25 0 -42 17.5t-17 42.5q0 15 7.5 29t22.5 24l342 229z" />
    <glyph glyph-name="acircumflex" unicode="&#xe2;" horiz-adv-x="979" 
d="M926 0h-736q-57 0 -97 39.5t-40 95.5v320q0 57 40.5 99t96.5 42h340q23 0 39.5 17t16.5 40t-16.5 39.5t-39.5 16.5h-452v233h710q58 0 98 -39.5t40 -95.5v-807zM594 299q0 43 -31 72.5t-78 29.5q-46 0 -76 -29t-30 -73t30 -73t76 -29q47 0 78 29.5t31 72.5zM783 1049
q0 -25 -17.5 -42.5t-42.5 -17.5q-36 0 -199 117q-26 19 -33 24q-11 -6 -42 -29q-156 -112 -192 -112q-24 0 -42 18.5t-18 41.5q0 14 6 27t17 22l270 262l270 -262q11 -11 17 -24t6 -25z" />
    <glyph glyph-name="atilde" unicode="&#xe3;" horiz-adv-x="979" 
d="M926 0h-736q-57 0 -97 39.5t-40 95.5v320q0 57 40.5 99t96.5 42h340q23 0 39.5 17t16.5 40t-16.5 39.5t-39.5 16.5h-452v233h710q58 0 98 -39.5t40 -95.5v-807zM594 299q0 43 -31 72.5t-78 29.5q-46 0 -76 -29t-30 -73t30 -73t76 -29q47 0 78 29.5t31 72.5zM846 1143
q-47 -65 -107.5 -100t-125.5 -35q-61 0 -136 38.5t-114 38.5q-38 0 -75 -19t-60 -50l-92 94q44 61 102 94t123 33q63 0 141 -39t115 -39q38 0 74.5 20t60.5 54z" />
    <glyph glyph-name="adieresis" unicode="&#xe4;" horiz-adv-x="979" 
d="M926 0h-736q-57 0 -97 39.5t-40 95.5v320q0 57 40.5 99t96.5 42h340q23 0 39.5 17t16.5 40t-16.5 39.5t-39.5 16.5h-452v233h710q58 0 98 -39.5t40 -95.5v-807zM594 299q0 43 -31 72.5t-78 29.5q-46 0 -76 -29t-30 -73t30 -73t76 -29q47 0 78 29.5t31 72.5zM771 1016
h-222v221h222v-221zM431 1016h-222v221h222v-221z" />
    <glyph glyph-name="aring" unicode="&#xe5;" horiz-adv-x="979" 
d="M926 0h-736q-57 0 -97 39.5t-40 95.5v320q0 57 40.5 99t96.5 42h340q23 0 39.5 17t16.5 40t-16.5 39.5t-39.5 16.5h-452v233h710q58 0 98 -39.5t40 -95.5v-807zM594 299q0 43 -31 72.5t-78 29.5q-46 0 -76 -29t-30 -73t30 -73t76 -29q47 0 78 29.5t31 72.5zM691 1186
q0 -83 -59 -141t-142 -58t-142 58t-59 141t59 143t142 60t142 -60t59 -143zM584 1186q0 40 -27 68t-67 28t-67 -28t-27 -68t27 -66t67 -26t67 26t27 66z" />
    <glyph glyph-name="ae" unicode="&#xe6;" horiz-adv-x="1520" 
d="M1470 481q0 -56 -39.5 -94.5t-97.5 -38.5h-340q-22 0 -38.5 -18t-16.5 -41t16 -38t39 -15h461v-236h-1264q-56 0 -96.5 41t-40.5 98v318q0 57 40.5 98t96.5 41h338q23 0 40.5 17t17.5 40t-16.5 39.5t-39.5 16.5h-452v233h1257q57 0 96 -39t39 -96v-326zM1147 639
q0 44 -31 73t-78 29q-46 0 -76 -28.5t-30 -73.5t30 -73.5t76 -28.5q47 0 78 29t31 73zM594 299q0 43 -31 72.5t-78 29.5q-46 0 -76 -29t-30 -73t30 -73t76 -29q47 0 78 29.5t31 72.5z" />
    <glyph glyph-name="ccedilla" unicode="&#xe7;" horiz-adv-x="987" 
d="M934 137q0 -57 -40 -97t-97 -40h-232q-20 -33 -29.5 -49.5t-16.5 -32.5q74 -10 115.5 -53.5t41.5 -114.5q0 -81 -55 -134t-162 -77q-4 0 -18 -3t-23 -3q-27 0 -44.5 15.5t-17.5 39.5q0 42 91.5 65.5t91.5 90.5q0 31 -20.5 49.5t-53.5 18.5q-9 0 -20 -2t-19 -4l-59 77
l67 117h-244q-56 0 -96.5 40t-40.5 97v668q0 57 40.5 97t96.5 40h607q57 0 97 -40t40 -97v-252h-326q-10 62 -37 93.5t-69 31.5q-55 0 -84 -49t-29 -142q0 -97 30 -152.5t83 -55.5q37 0 65 30t38 80h329v-252z" />
    <glyph glyph-name="egrave" unicode="&#xe8;" horiz-adv-x="975" 
d="M922 483q0 -56 -40 -95.5t-96 -39.5h-342q-22 0 -38.5 -17t-16.5 -40t16 -39t39 -16h461v-236h-715q-56 0 -96.5 40t-40.5 97v668q0 57 40.5 97t96.5 40h596q56 0 96 -40.5t40 -96.5v-322zM598 639q0 44 -31 73t-78 29q-45 0 -75.5 -28.5t-30.5 -73.5t30.5 -73.5
t75.5 -28.5q47 0 78 29t31 73zM721 1049q0 -25 -17 -42.5t-42 -17.5q-37 0 -355 148q-41 19 -52 24l94 170l342 -229q15 -10 22.5 -24t7.5 -29z" />
    <glyph glyph-name="eacute" unicode="&#xe9;" horiz-adv-x="975" 
d="M922 483q0 -56 -40 -95.5t-96 -39.5h-342q-22 0 -38.5 -17t-16.5 -40t16 -39t39 -16h461v-236h-715q-56 0 -96.5 40t-40.5 97v668q0 57 40.5 97t96.5 40h596q56 0 96 -40.5t40 -96.5v-322zM598 639q0 44 -31 73t-78 29q-45 0 -75.5 -28.5t-30.5 -73.5t30.5 -73.5
t75.5 -28.5q47 0 78 29t31 73zM721 1161q-11 -5 -52 -24q-318 -148 -355 -148q-25 0 -42 17.5t-17 42.5q0 15 7.5 29t22.5 24l342 229z" />
    <glyph glyph-name="ecircumflex" unicode="&#xea;" horiz-adv-x="975" 
d="M922 483q0 -56 -40 -95.5t-96 -39.5h-342q-22 0 -38.5 -17t-16.5 -40t16 -39t39 -16h461v-236h-715q-56 0 -96.5 40t-40.5 97v668q0 57 40.5 97t96.5 40h596q56 0 96 -40.5t40 -96.5v-322zM598 639q0 44 -31 73t-78 29q-45 0 -75.5 -28.5t-30.5 -73.5t30.5 -73.5
t75.5 -28.5q47 0 78 29t31 73zM781 1049q0 -25 -17.5 -42.5t-42.5 -17.5q-36 0 -199 117q-26 19 -33 24q-11 -6 -42 -29q-156 -112 -192 -112q-24 0 -42 18.5t-18 41.5q0 14 6 27t17 22l270 262l270 -262q11 -11 17 -24t6 -25z" />
    <glyph glyph-name="edieresis" unicode="&#xeb;" horiz-adv-x="975" 
d="M922 483q0 -56 -40 -95.5t-96 -39.5h-342q-22 0 -38.5 -17t-16.5 -40t16 -39t39 -16h461v-236h-715q-56 0 -96.5 40t-40.5 97v668q0 57 40.5 97t96.5 40h596q56 0 96 -40.5t40 -96.5v-322zM598 639q0 44 -31 73t-78 29q-45 0 -75.5 -28.5t-30.5 -73.5t30.5 -73.5
t75.5 -28.5q47 0 78 29t31 73zM769 1016h-222v221h222v-221zM429 1016h-222v221h222v-221z" />
    <glyph glyph-name="igrave" unicode="&#xec;" horiz-adv-x="459" 
d="M401 0h-344v942h344v-942zM463 1049q0 -25 -17 -42.5t-42 -17.5q-37 0 -355 148q-41 19 -52 24l94 170l342 -229q15 -10 22.5 -24t7.5 -29z" />
    <glyph glyph-name="iacute" unicode="&#xed;" horiz-adv-x="459" 
d="M401 0h-344v942h344v-942zM463 1161q-11 -5 -52 -24q-318 -148 -355 -148q-25 0 -42 17.5t-17 42.5q0 15 7.5 29t22.5 24l342 229z" />
    <glyph glyph-name="icircumflex" unicode="&#xee;" horiz-adv-x="459" 
d="M401 0h-344v942h344v-942zM523 1049q0 -25 -17.5 -42.5t-42.5 -17.5q-36 0 -199 117q-26 19 -33 24q-11 -6 -42 -29q-156 -112 -192 -112q-24 0 -42 18.5t-18 41.5q0 14 6 27t17 22l270 262l270 -262q11 -11 17 -24t6 -25z" />
    <glyph glyph-name="idieresis" unicode="&#xef;" horiz-adv-x="459" 
d="M401 0h-344v942h344v-942zM511 1016h-222v221h222v-221zM171 1016h-222v221h222v-221z" />
    <glyph glyph-name="eth" unicode="&#xf0;" horiz-adv-x="1020" 
d="M1020 1190l-127 -37q0 -1 1 -3t1 -3q29 -68 42 -142.5t13 -181.5v-823h-760q-56 0 -96.5 40t-40.5 97v670q0 56 40 95.5t97 39.5h408v19q0 24 -3.5 50.5t-10.5 52.5l-144 -42l-37 123l129 39q-29 49 -57.5 87t-58.5 68h372q11 -14 26 -39.5t20 -31.5l149 45zM612 485
q0 93 -28.5 142t-83.5 49t-84 -49.5t-29 -141.5q0 -95 30.5 -150.5t82.5 -55.5q53 0 82.5 55t29.5 151z" />
    <glyph glyph-name="ntilde" unicode="&#xf1;" horiz-adv-x="967" 
d="M913 0h-344v569q0 36 -24.5 61t-59.5 25t-61.5 -25.5t-26.5 -60.5v-569h-344v942h725q57 0 96 -40t39 -97v-805zM826 1143q-47 -65 -107.5 -100t-125.5 -35q-61 0 -136 38.5t-114 38.5q-38 0 -75 -19t-60 -50l-92 94q44 61 102 94t123 33q63 0 141 -39t115 -39
q38 0 74.5 20t60.5 54z" />
    <glyph glyph-name="ograve" unicode="&#xf2;" horiz-adv-x="1004" 
d="M950 137q0 -57 -40 -97t-97 -40h-623q-56 0 -96.5 40t-40.5 97v668q0 57 40.5 97t96.5 40h623q57 0 97 -40t40 -97v-668zM614 485q0 93 -28.5 142t-83.5 49q-54 0 -83.5 -49.5t-29.5 -141.5q0 -95 30.5 -150.5t82.5 -55.5q53 0 82.5 55t29.5 151zM736 1049
q0 -25 -17 -42.5t-42 -17.5q-37 0 -355 148q-41 19 -52 24l94 170l342 -229q15 -10 22.5 -24t7.5 -29z" />
    <glyph glyph-name="oacute" unicode="&#xf3;" horiz-adv-x="1004" 
d="M950 137q0 -57 -40 -97t-97 -40h-623q-56 0 -96.5 40t-40.5 97v668q0 57 40.5 97t96.5 40h623q57 0 97 -40t40 -97v-668zM614 485q0 93 -28.5 142t-83.5 49q-54 0 -83.5 -49.5t-29.5 -141.5q0 -95 30.5 -150.5t82.5 -55.5q53 0 82.5 55t29.5 151zM736 1161
q-11 -5 -52 -24q-318 -148 -355 -148q-25 0 -42 17.5t-17 42.5q0 15 7.5 29t22.5 24l342 229z" />
    <glyph glyph-name="ocircumflex" unicode="&#xf4;" horiz-adv-x="1004" 
d="M950 137q0 -57 -40 -97t-97 -40h-623q-56 0 -96.5 40t-40.5 97v668q0 57 40.5 97t96.5 40h623q57 0 97 -40t40 -97v-668zM614 485q0 93 -28.5 142t-83.5 49q-54 0 -83.5 -49.5t-29.5 -141.5q0 -95 30.5 -150.5t82.5 -55.5q53 0 82.5 55t29.5 151zM796 1049
q0 -25 -17.5 -42.5t-42.5 -17.5q-36 0 -199 117q-26 19 -33 24q-11 -6 -42 -29q-156 -112 -192 -112q-24 0 -42 18.5t-18 41.5q0 14 6 27t17 22l270 262l270 -262q11 -11 17 -24t6 -25z" />
    <glyph glyph-name="otilde" unicode="&#xf5;" horiz-adv-x="1004" 
d="M950 137q0 -57 -40 -97t-97 -40h-623q-56 0 -96.5 40t-40.5 97v668q0 57 40.5 97t96.5 40h623q57 0 97 -40t40 -97v-668zM614 485q0 93 -28.5 142t-83.5 49q-54 0 -83.5 -49.5t-29.5 -141.5q0 -95 30.5 -150.5t82.5 -55.5q53 0 82.5 55t29.5 151zM859 1143
q-47 -65 -107.5 -100t-125.5 -35q-61 0 -136 38.5t-114 38.5q-38 0 -75 -19t-60 -50l-92 94q44 61 102 94t123 33q63 0 141 -39t115 -39q38 0 74.5 20t60.5 54z" />
    <glyph glyph-name="odieresis" unicode="&#xf6;" horiz-adv-x="1004" 
d="M950 137q0 -57 -40 -97t-97 -40h-623q-56 0 -96.5 40t-40.5 97v668q0 57 40.5 97t96.5 40h623q57 0 97 -40t40 -97v-668zM614 485q0 93 -28.5 142t-83.5 49q-54 0 -83.5 -49.5t-29.5 -141.5q0 -95 30.5 -150.5t82.5 -55.5q53 0 82.5 55t29.5 151zM784 1016h-222v221h222
v-221zM444 1016h-222v221h222v-221z" />
    <glyph glyph-name="divide" unicode="&#xf7;" horiz-adv-x="1188" 
d="M748 1049q0 -63 -45.5 -108.5t-108.5 -45.5t-108.5 45.5t-45.5 108.5t45.5 108t108.5 45t108.5 -45t45.5 -108zM1116 563h-1044v234h1044v-234zM748 311q0 -63 -45.5 -108t-108.5 -45t-108.5 45t-45.5 108t45.5 108.5t108.5 45.5t108.5 -45.5t45.5 -108.5z" />
    <glyph glyph-name="oslash" unicode="&#xf8;" horiz-adv-x="1004" 
d="M950 137q0 -57 -40 -97t-97 -40h-420l-47 -135l-100 35l35 100h-91q-56 0 -96.5 40t-40.5 97v670q0 56 40 95.5t97 39.5h420l43 125l101 -35l-31 -90h90q57 0 97 -39.5t40 -95.5v-670zM614 471q0 36 -5 69.5t-15 61.5l-117 -336h17q57 0 88.5 54t31.5 151zM526 676h-16
q-57 0 -89 -54t-32 -151q0 -36 5.5 -69.5t15.5 -61.5z" />
    <glyph glyph-name="ugrave" unicode="&#xf9;" horiz-adv-x="967" 
d="M913 137q0 -57 -40 -97t-97 -40h-586q-56 0 -96.5 40t-40.5 97v805h344v-575q0 -36 25.5 -61t60.5 -25q36 0 61 25t25 61v575h344v-805zM717 1049q0 -25 -17 -42.5t-42 -17.5q-37 0 -355 148q-41 19 -52 24l94 170l342 -229q15 -10 22.5 -24t7.5 -29z" />
    <glyph glyph-name="uacute" unicode="&#xfa;" horiz-adv-x="967" 
d="M913 137q0 -57 -40 -97t-97 -40h-586q-56 0 -96.5 40t-40.5 97v805h344v-575q0 -36 25.5 -61t60.5 -25q36 0 61 25t25 61v575h344v-805zM717 1161q-11 -5 -52 -24q-318 -148 -355 -148q-25 0 -42 17.5t-17 42.5q0 15 7.5 29t22.5 24l342 229z" />
    <glyph glyph-name="ucircumflex" unicode="&#xfb;" horiz-adv-x="967" 
d="M913 137q0 -57 -40 -97t-97 -40h-586q-56 0 -96.5 40t-40.5 97v805h344v-575q0 -36 25.5 -61t60.5 -25q36 0 61 25t25 61v575h344v-805zM777 1049q0 -25 -17.5 -42.5t-42.5 -17.5q-36 0 -199 117q-26 19 -33 24q-11 -6 -42 -29q-156 -112 -192 -112q-24 0 -42 18.5
t-18 41.5q0 14 6 27t17 22l270 262l270 -262q11 -11 17 -24t6 -25z" />
    <glyph glyph-name="udieresis" unicode="&#xfc;" horiz-adv-x="967" 
d="M913 137q0 -57 -40 -97t-97 -40h-586q-56 0 -96.5 40t-40.5 97v805h344v-575q0 -36 25.5 -61t60.5 -25q36 0 61 25t25 61v575h344v-805zM765 1016h-222v221h222v-221zM425 1016h-222v221h222v-221z" />
    <glyph glyph-name="yacute" unicode="&#xfd;" horiz-adv-x="971" 
d="M918 -240q0 -56 -42 -96.5t-100 -40.5h-696v225h418q34 0 59 24t25 56q0 31 -21 51.5t-53 20.5h-320q-56 0 -95.5 40t-39.5 97v805h344v-563q0 -35 27 -60.5t63 -25.5t61 25.5t25 60.5v563h345v-1182zM719 1161q-11 -5 -52 -24q-318 -148 -355 -148q-25 0 -42 17.5
t-17 42.5q0 15 7.5 29t22.5 24l342 229z" />
    <glyph glyph-name="thorn" unicode="&#xfe;" horiz-adv-x="1004" 
d="M950 137q0 -57 -40 -97t-97 -40h-416v-377h-344v1716h344v-397h416q57 0 97 -39.5t40 -95.5v-670zM614 485q0 93 -28.5 142t-83.5 49q-54 0 -83.5 -49.5t-29.5 -141.5q0 -95 30.5 -150.5t82.5 -55.5q53 0 82.5 55t29.5 151z" />
    <glyph glyph-name="ydieresis" unicode="&#xff;" horiz-adv-x="971" 
d="M918 -240q0 -56 -42 -96.5t-100 -40.5h-696v225h418q34 0 59 24t25 56q0 31 -21 51.5t-53 20.5h-320q-56 0 -95.5 40t-39.5 97v805h344v-563q0 -35 27 -60.5t63 -25.5t61 25.5t25 60.5v563h345v-1182zM767 1016h-222v221h222v-221zM427 1016h-222v221h222v-221z" />
    <glyph glyph-name="dotlessi" unicode="&#x131;" horiz-adv-x="459" 
d="M401 0h-344v942h344v-942z" />
    <glyph glyph-name="OE" unicode="&#x152;" horiz-adv-x="1630" 
d="M1581 0h-1370q-63 0 -107.5 45t-44.5 109v1034q0 63 44.5 107t107.5 44h1370v-335h-418q-40 0 -67 -25t-27 -61q0 -37 27 -62t67 -25h418v-317h-418q-39 0 -66.5 -25.5t-27.5 -62.5t27.5 -63.5t66.5 -26.5h418v-336zM696 672q0 167 -35.5 254.5t-103.5 87.5t-103.5 -87.5
t-35.5 -254.5t35 -253.5t104 -86.5t104 86.5t35 253.5z" />
    <glyph glyph-name="oe" unicode="&#x153;" horiz-adv-x="1532" 
d="M1479 483q0 -56 -40 -95.5t-98 -39.5h-342q-22 0 -38.5 -17t-16.5 -40t16 -39t39 -16h463v-236h-1272q-57 0 -97 39.5t-40 95.5v670q0 57 40.5 97t96.5 40h1153q57 0 96.5 -40t39.5 -97v-322zM1155 639q0 44 -31 73t-77 29t-76.5 -28.5t-30.5 -73.5t30.5 -73.5
t76.5 -28.5t77 29t31 73zM614 485q0 93 -28.5 142t-83.5 49q-54 0 -83.5 -49.5t-29.5 -141.5q0 -95 30.5 -150.5t82.5 -55.5q53 0 82.5 55t29.5 151z" />
    <glyph glyph-name="Scaron" unicode="&#x160;" horiz-adv-x="1090" 
d="M1036 152q0 -63 -43.5 -107.5t-105.5 -44.5h-682q-63 0 -107.5 44.5t-44.5 107.5v270h383q0 -59 27.5 -91t79.5 -32t82 34t30 91q0 49 -32 78.5t-84 29.5h-334q-62 0 -107 46.5t-45 109.5v500q0 63 44.5 107t107.5 44h682q62 0 105.5 -44.5t43.5 -106.5v-250h-385
q0 53 -28 84t-78 31q-48 0 -78.5 -30t-30.5 -77q0 -54 31 -83t86 -29h334q62 0 105.5 -45t43.5 -107v-530zM838 1697q0 -12 -6 -25t-17 -24l-270 -262l-270 262q-11 9 -17 22t-6 27q0 24 18 42t42 18q36 0 192 -112q31 -23 42 -29q7 5 33 24q163 117 199 117
q25 0 42.5 -17.5t17.5 -42.5z" />
    <glyph glyph-name="scaron" unicode="&#x161;" horiz-adv-x="954" 
d="M901 137q0 -57 -39.5 -97t-95.5 -40h-707v233h408q25 0 43 18.5t18 43.5q0 24 -18 40.5t-43 16.5h-277q-57 0 -97 38.5t-40 94.5v320q0 57 40.5 97t96.5 40h691v-233h-398q-24 0 -40.5 -16.5t-16.5 -41.5t16.5 -42t40.5 -17h281q57 0 97 -39.5t40 -95.5v-320zM771 1300
q0 -12 -6 -25t-17 -24l-270 -262l-270 262q-11 9 -17 22t-6 27q0 24 18 42t42 18q36 0 192 -112q31 -23 42 -29q7 5 33 24q163 117 199 117q25 0 42.5 -17.5t17.5 -42.5z" />
    <glyph glyph-name="Ydieresis" unicode="&#x178;" horiz-adv-x="1090" 
d="M1040 578q0 -64 -43 -108t-106 -44h-68q-36 0 -64 -24.5t-28 -57.5v-344h-369v344q0 35 -27 58.5t-65 23.5h-69q-61 0 -106.5 41.5t-45.5 97.5v774h369v-479q0 -57 36 -96t89 -39t91 39.5t38 95.5v479h368v-761zM826 1413h-222v221h222v-221zM486 1413h-222v221h222v-221
z" />
    <glyph glyph-name="Zcaron" unicode="&#x17d;" horiz-adv-x="1040" 
d="M991 0h-942v215q0 73 14.5 116t55.5 97l311 418q24 33 35.5 58.5t11.5 43.5q0 8 -0.5 11.5t-1.5 5.5q-5 19 -24.5 29t-57.5 10h-336v335h922v-256q0 -75 -10.5 -106.5t-42.5 -75.5l-297 -403q-27 -35 -39 -60t-12 -45v-9.5t2 -7.5q5 -18 25.5 -27t60.5 -9h325v-340z
M813 1697q0 -12 -6 -25t-17 -24l-270 -262l-270 262q-11 9 -17 22t-6 27q0 24 18 42t42 18q36 0 192 -112q31 -23 42 -29q7 5 33 24q163 117 199 117q25 0 42.5 -17.5t17.5 -42.5z" />
    <glyph glyph-name="zcaron" unicode="&#x17e;" horiz-adv-x="885" 
d="M844 0h-803v199q0 50 14.5 86t53.5 75l225 234q16 16 24.5 32.5t8.5 30.5q0 6 -0.5 9t-1.5 5q-5 17 -19.5 25.5t-38.5 8.5h-258v237h782v-219q0 -62 -12.5 -95t-40.5 -59l-225 -213q-21 -21 -31 -38.5t-10 -32.5q0 -6 0.5 -9.5t1.5 -5.5q4 -15 20 -23.5t44 -8.5h266v-238
zM736 1300q0 -12 -6 -25t-17 -24l-270 -262l-270 262q-11 9 -17 22t-6 27q0 24 18 42t42 18q36 0 192 -112q31 -23 42 -29q7 5 33 24q163 117 199 117q25 0 42.5 -17.5t17.5 -42.5z" />
    <glyph glyph-name="florin" unicode="&#x192;" horiz-adv-x="860" 
d="M852 1339l-41 -227h-180q-28 0 -48 -13t-24 -36v-12q0 -23 14.5 -38.5t36.5 -15.5h158l-43 -237h-111q-43 0 -68.5 -22t-37.5 -70l-234 -987h-284l172 987q1 6 1.5 11t0.5 15q0 33 -19 49.5t-57 16.5h-39l45 237h131l35 205q9 56 57 96.5t105 40.5h430z" />
    <glyph glyph-name="circumflex" unicode="&#x2c6;" horiz-adv-x="1024" 
d="M805 1049q0 -25 -17.5 -42.5t-42.5 -17.5q-36 0 -199 117q-26 19 -33 24q-11 -6 -42 -29q-156 -112 -192 -112q-24 0 -42 18.5t-18 41.5q0 14 6 27t17 22l270 262l270 -262q11 -11 17 -24t6 -25z" />
    <glyph glyph-name="caron" unicode="&#x2c7;" horiz-adv-x="1024" 
d="M805 1300q0 -12 -6 -25t-17 -24l-270 -262l-270 262q-11 9 -17 22t-6 27q0 24 18 42t42 18q36 0 192 -112q31 -23 42 -29q7 5 33 24q163 117 199 117q25 0 42.5 -17.5t17.5 -42.5z" />
    <glyph glyph-name="ring" unicode="&#x2da;" horiz-adv-x="1024" 
d="M713 1186q0 -83 -59 -141t-142 -58t-142 58t-59 141t59 143t142 60t142 -60t59 -143zM606 1186q0 40 -27 68t-67 28t-67 -28t-27 -68t27 -66t67 -26t67 26t27 66z" />
    <glyph glyph-name="tilde" unicode="&#x2dc;" horiz-adv-x="1024" 
d="M868 1143q-47 -65 -107.5 -100t-125.5 -35q-61 0 -136 38.5t-114 38.5q-38 0 -75 -19t-60 -50l-92 94q44 61 102 94t123 33q63 0 141 -39t115 -39q38 0 74.5 20t60.5 54z" />
    <glyph glyph-name="endash" unicode="&#x2013;" horiz-adv-x="1024" 
d="M942 338h-860v233h860v-233z" />
    <glyph glyph-name="emdash" unicode="&#x2014;" horiz-adv-x="2048" 
d="M2048 338h-2048v233h2048v-233z" />
    <glyph glyph-name="quoteleft" unicode="&#x2018;" horiz-adv-x="430" 
d="M369 811h-308v246q0 40 7.5 71.5t25.5 69.5q12 25 70 141h158q-52 -120 -74 -169q-6 -14 -8 -22t-2 -15q0 -21 13.5 -32t39.5 -11h78v-279z" />
    <glyph glyph-name="quoteright" unicode="&#x2019;" horiz-adv-x="430" 
d="M369 1094q0 -40 -7.5 -71.5t-25.5 -70.5q-12 -24 -70 -141h-157q51 121 73 170q6 13 8 21.5t3 15.5q0 20 -14 31.5t-40 11.5h-78v278h308v-245z" />
    <glyph glyph-name="quotesinglbase" unicode="&#x201a;" horiz-adv-x="430" 
d="M369 33q0 -40 -7.5 -71.5t-25.5 -70.5q-12 -24 -70 -141h-157q51 121 73 170q6 13 8 21.5t3 15.5q0 20 -14 31.5t-40 11.5h-78v279h308v-246z" />
    <glyph glyph-name="quotedblleft" unicode="&#x201c;" horiz-adv-x="823" 
d="M762 811h-307v246q0 40 7 71.5t25 69.5q13 25 70 141h158q-51 -120 -74 -169q-5 -13 -7.5 -21.5t-2.5 -15.5q0 -21 14 -32t39 -11h78v-279zM369 811h-308v246q0 40 7.5 71.5t25.5 69.5q12 25 70 141h158q-52 -120 -74 -169q-6 -14 -8 -22t-2 -15q0 -21 13.5 -32t39.5 -11
h78v-279z" />
    <glyph glyph-name="quotedblright" unicode="&#x201d;" horiz-adv-x="823" 
d="M762 1094q0 -40 -7.5 -71.5t-25.5 -70.5q-12 -24 -70 -141h-157q51 121 73 169q6 14 8.5 23t2.5 15q0 20 -14 31.5t-40 11.5h-77v278h307v-245zM369 1094q0 -40 -7.5 -71.5t-25.5 -70.5q-12 -24 -70 -141h-157q51 121 73 170q6 13 8 21.5t3 15.5q0 20 -14 31.5t-40 11.5
h-78v278h308v-245z" />
    <glyph glyph-name="quotedblbase" unicode="&#x201e;" horiz-adv-x="823" 
d="M762 33q0 -40 -7.5 -71.5t-25.5 -70.5q-12 -24 -70 -141h-157q51 121 74 171q5 12 7.5 21t2.5 15q0 20 -14 31.5t-40 11.5h-77v279h307v-246zM369 33q0 -40 -7.5 -71.5t-25.5 -70.5q-12 -24 -70 -141h-157q51 121 73 170q6 13 8 21.5t3 15.5q0 20 -14 31.5t-40 11.5h-78
v279h308v-246z" />
    <glyph glyph-name="dagger" unicode="&#x2020;" horiz-adv-x="696" 
d="M639 940h-147q-16 0 -28 -10t-13 -24l-35 -677h-131l-39 676q-2 15 -13 25t-26 10h-150v168h189v231h205v-231h188v-168z" />
    <glyph glyph-name="daggerdbl" unicode="&#x2021;" horiz-adv-x="696" 
d="M639 629h-147q-16 0 -28 -10t-13 -25l-35 -444h-131l-39 443q-2 16 -12.5 25.5t-26.5 10.5h-150v168h189v108q0 15 -11.5 25t-27.5 10h-150v168h189v231h205v-231h188v-168h-147q-17 0 -29 -10t-12 -25v-108h188v-168z" />
    <glyph glyph-name="bullet" unicode="&#x2022;" horiz-adv-x="635" 
d="M508 455q0 -79 -56 -135t-135 -56q-78 0 -134 56t-56 135q0 78 56 134t134 56q79 0 135 -56t56 -134z" />
    <glyph glyph-name="ellipsis" unicode="&#x2026;" horiz-adv-x="1249" 
d="M1188 0h-307v279h307v-279zM778 0h-307v279h307v-279zM369 0h-308v279h308v-279z" />
    <glyph glyph-name="perthousand" unicode="&#x2030;" horiz-adv-x="2007" 
d="M1954 88q0 -36 -26.5 -62t-63.5 -26h-381q-37 0 -62.5 25.5t-25.5 62.5v447q0 36 25.5 62t62.5 26h381q37 0 63.5 -26t26.5 -62v-447zM612 805q0 -37 -26.5 -62.5t-63.5 -25.5h-381q-37 0 -62.5 25.5t-25.5 62.5v446q0 37 25.5 62.5t62.5 25.5h381q37 0 63.5 -25.5
t26.5 -62.5v-446zM1102 1339l-684 -1339h-139l686 1339h137zM1327 88q0 -36 -26.5 -62t-63.5 -26h-381q-37 0 -62.5 25.5t-25.5 62.5v447q0 36 25.5 62t62.5 26h381q37 0 63.5 -26t26.5 -62v-447zM1755 311q0 69 -21 108.5t-59 39.5t-60 -39.5t-22 -108.5t22 -108t60 -39
t59 38.5t21 108.5zM414 1028q0 69 -21.5 108.5t-58.5 39.5q-38 0 -60 -40t-22 -108q0 -69 21.5 -108t60.5 -39q38 0 59 38.5t21 108.5zM1128 311q0 69 -21 108.5t-58 39.5q-38 0 -60 -39.5t-22 -108.5t21.5 -108t60.5 -39q38 0 58.5 38.5t20.5 108.5z" />
    <glyph glyph-name="guilsinglleft" unicode="&#x2039;" horiz-adv-x="553" 
d="M512 164q0 -40 -28.5 -69t-67.5 -29q-21 0 -41.5 9.5t-34.5 26.5l-297 369l297 369q14 17 33.5 27t40.5 10q40 0 69 -28.5t29 -68.5q0 -17 -6 -33t-17 -28l-200 -248l200 -248q11 -12 17 -27.5t6 -31.5z" />
    <glyph glyph-name="guilsinglright" unicode="&#x203a;" horiz-adv-x="553" 
d="M510 471l-297 -369q-14 -17 -33.5 -26.5t-40.5 -9.5q-40 0 -69 28t-29 68q0 17 6 33t16 28l201 248l-201 248q-11 12 -16.5 27.5t-5.5 31.5q0 41 28.5 70t67.5 29q21 0 41.5 -10t34.5 -27z" />
    <glyph glyph-name="Euro" unicode="&#x20ac;" horiz-adv-x="657" 
d="M31 452h66q11 63 35.5 114t60.5 87.5t81.5 56t99.5 19.5q51 0 92.5 -15.5t72 -43t50 -65t25.5 -82.5h-94q-12 58 -48.5 91t-98.5 33q-75 0 -118.5 -52t-57.5 -143h203v-57h-209q-1 -10 -1 -20v-20v-21t1 -20h209v-57h-202q16 -94 63 -142t120 -48q69 0 107 45t46 114h90
q-2 -50 -19.5 -94t-49 -76.5t-75.5 -51.5t-98 -19t-101 18t-84 53t-63 85.5t-37 115.5h-66v57h59q-1 10 -1 20v21v20t1 20h-59v57z" />
    <glyph glyph-name="trademark" unicode="&#x2122;" horiz-adv-x="1413" 
d="M1362 768h-203v342q0 24 -9.5 36.5t-27.5 12.5q-17 0 -27 -13t-10 -36v-342h-202v342q0 24 -9.5 36.5t-27.5 12.5q-17 0 -26 -12.5t-9 -36.5v-342h-205v571h596q69 0 114.5 -41.5t45.5 -105.5v-424zM553 1159h-117q-22 0 -39.5 -15t-17.5 -36v-340h-205v340
q0 21 -16.5 36t-38.5 15h-119v180h553v-180z" />
    <glyph glyph-name="glyph220" horiz-adv-x="0" 
 />
    </font>
</defs>
</svg>
